<?xml version="1.0" encoding="utf-8"?>
<!-- Generator: Adobe Illustrator 23.1.0, SVG Export Plug-In . SVG Version: 6.00 Build 0)  -->
<svg version="1.1" xmlns="http://www.w3.org/2000/svg" xmlns:xlink="http://www.w3.org/1999/xlink" x="0px" y="0px"
	 viewBox="0 0 500 500" style="enable-background:new 0 0 500 500;" xml:space="preserve">
<style type="text/css">
	.st0{fill:#E8ECF7;}
	.st1{fill:#CFD5EE;}
	.st2{fill:#4B742A;}
	.st3{fill:#90CC6A;}
	.st4{fill:#568336;}
	.st5{fill:#699D46;}
	.st6{fill:#FFFFFF;}
	.st7{fill:#ABB6D8;}
	.st8{fill:#534E7A;}
	.st9{fill:#F1C8B9;}
	.st10{fill:#191C26;}
	.st11{fill:#FE9C70;}
	.st12{fill:#D79580;}
	.st13{fill:#EF8359;}
	.st14{fill:none;stroke:#FFFFFF;stroke-width:0.5613;stroke-miterlimit:10;}
	.st15{fill:#EEF2FA;}
	.st16{fill:#7A86DE;}
	.st17{fill:#EF8054;}
	.st18{fill:#DBE3DF;}
	.st19{fill:none;stroke:#DBE3DF;stroke-width:0.4858;stroke-miterlimit:10;}
	.st20{opacity:0.5;fill:#BED3E3;}
	.st21{fill:#596BC1;}
	.st22{fill:#3F3F3F;}
	.st23{fill:#2E2F44;}
	.st24{opacity:0.2;}
	.st25{fill:#49161A;}
	.st26{fill:#75AAF5;}
	.st27{fill:#C5C8D3;}
	.st28{fill:#F28A61;}
	.st29{fill:#E0E0E0;}
	.st30{fill:none;stroke:#FFFFFF;stroke-width:0.6182;stroke-miterlimit:10;}
	.st31{fill:#40507F;}
</style>
<g id="BACKGROUND">
</g>
<g id="OBJECTS">
	<path class="st0" d="M478.87,290.02c0,126.56-104.86,154.89-235.43,187.01c-122.9,30.23-222.88-60.45-222.88-187.01
		s109.09-61.13,221.95-147.34C359.3,53.48,478.87,163.47,478.87,290.02z"/>
	<rect x="214.21" y="66.64" class="st1" width="71.14" height="90.19"/>
	<rect x="219.2" y="72.97" class="st0" width="61.15" height="77.53"/>
	<rect x="294.17" y="66.64" class="st1" width="38.06" height="39.19"/>
	<rect x="298.14" y="70.73" class="st0" width="30.14" height="31.03"/>
	<rect x="294.61" y="110.43" class="st1" width="47.22" height="56.4"/>
	<rect x="298.84" y="115.48" class="st0" width="38.75" height="46.29"/>
	<rect x="223.67" y="79.33" class="st1" width="17.17" height="15.17"/>
	<g>
		<rect x="223.67" y="118.44" class="st1" width="4.4" height="3.89"/>
		<rect x="229.82" y="118.44" class="st1" width="47.13" height="3.89"/>
	</g>
	<g>
		<rect x="223.67" y="125.06" class="st1" width="4.4" height="3.89"/>
		<rect x="229.82" y="125.06" class="st1" width="47.13" height="3.89"/>
	</g>
	<g>
		<rect x="223.67" y="131.67" class="st1" width="4.4" height="3.89"/>
		<rect x="229.82" y="131.67" class="st1" width="47.13" height="3.89"/>
	</g>
	<g>
		<rect x="223.67" y="138.29" class="st1" width="4.4" height="3.89"/>
		<rect x="229.82" y="138.29" class="st1" width="47.13" height="3.89"/>
	</g>
	<rect x="223.67" y="100.28" class="st1" width="28.06" height="15.17"/>
	<rect x="254.75" y="100.28" class="st1" width="22.23" height="15.17"/>
	<rect x="243.19" y="79.33" class="st1" width="34.77" height="2.19"/>
	<rect x="243.19" y="82.97" class="st1" width="34.77" height="2.19"/>
	<rect x="243.19" y="86.61" class="st1" width="21.57" height="2.19"/>
	<rect x="243.19" y="90.25" class="st1" width="21.57" height="2.19"/>
	<rect x="302.79" y="120.26" class="st1" width="13.69" height="12.1"/>
	<rect x="318.36" y="120.26" class="st1" width="15.55" height="1.75"/>
	<rect x="318.36" y="123.16" class="st1" width="15.55" height="1.75"/>
	<rect x="318.36" y="126.07" class="st1" width="9.64" height="1.75"/>
	<rect x="318.36" y="128.97" class="st1" width="9.64" height="1.75"/>
	<rect x="302.79" y="135.98" class="st1" width="13.69" height="12.1"/>
	<rect x="302.79" y="150.51" class="st1" width="31.39" height="7.8"/>
	<rect x="318.36" y="135.98" class="st1" width="15.55" height="1.75"/>
	<rect x="318.36" y="138.89" class="st1" width="15.55" height="1.75"/>
	<rect x="318.36" y="141.79" class="st1" width="9.64" height="1.75"/>
	<rect x="318.36" y="144.7" class="st1" width="9.64" height="1.75"/>
	<rect x="309.98" y="73.53" class="st1" width="6.46" height="6.46"/>
	<g>
		<rect x="301.43" y="83.45" class="st1" width="4.73" height="4.73"/>
		<rect x="310.59" y="83.45" class="st1" width="4.73" height="4.73"/>
		<rect x="320.26" y="83.45" class="st1" width="4.73" height="4.73"/>
	</g>
	<g>
		<rect x="301.43" y="92.36" class="st1" width="4.73" height="4.73"/>
		<rect x="310.59" y="92.36" class="st1" width="4.73" height="4.73"/>
		<rect x="320.26" y="92.36" class="st1" width="4.73" height="4.73"/>
	</g>
	<g>
		<g>
			<path class="st1" d="M312.69,79.93c0,0.63,0.01,1.26,0.03,1.89c0.02,0.61,0.07,1.26,0.23,1.85c0.05,0.18,0.32,0.14,0.32-0.04
				c0.01-0.61-0.08-1.24-0.15-1.84c-0.07-0.62-0.13-1.23-0.16-1.85C312.95,79.75,312.69,79.75,312.69,79.93L312.69,79.93z"/>
		</g>
	</g>
	<g>
		<g>
			<path class="st1" d="M304.41,83.95c-0.59-0.98,0.07-1.88,1.05-2.15c0.88-0.25,1.82-0.29,2.73-0.3c1.89-0.02,3.79,0.05,5.68,0.09
				c1.88,0.03,3.76,0.06,5.64,0.08c0.48,0.01,1.19-0.1,1.62,0.15c0.34,0.2,0.47,0.56,0.55,0.93c0.12,0.59,0.06,1.24,0.39,1.76
				c0.09,0.14,0.34,0.09,0.33-0.09c-0.05-0.71-0.1-1.57-0.36-2.24c-0.27-0.71-0.86-0.98-1.58-1.03c-2.43-0.15-4.89-0.1-7.32-0.14
				c-2.29-0.04-4.68-0.28-6.95,0.08c-0.82,0.13-1.77,0.34-2.23,1.11c-0.36,0.62-0.32,1.38,0.06,1.97
				C304.17,84.43,304.56,84.2,304.41,83.95L304.41,83.95z"/>
		</g>
	</g>
	<g>
		<g>
			<path class="st1" d="M303.43,87.77c0.01,0.95,0.03,1.9,0.08,2.85c0.02,0.47,0.05,0.95,0.09,1.42c0.03,0.45,0.05,0.93,0.16,1.36
				c0.05,0.2,0.34,0.15,0.35-0.05c0.03-0.47-0.04-0.96-0.07-1.42c-0.03-0.46-0.06-0.91-0.08-1.37c-0.04-0.93-0.07-1.86-0.07-2.8
				C303.89,87.47,303.42,87.47,303.43,87.77L303.43,87.77z"/>
		</g>
	</g>
	<g>
		<g>
			<path class="st1" d="M303.73,90.09c1.83-0.16,3.66-0.22,5.49-0.02c0.71,0.08,1.57,0.19,1.99,0.84c0.41,0.64,0.25,1.47,0.6,2.12
				c0.1,0.2,0.44,0.11,0.43-0.12c-0.05-0.75-0.15-1.7-0.58-2.34c-0.43-0.62-1.17-0.85-1.88-0.95c-1.99-0.28-4.11-0.24-6.09,0.13
				C303.5,89.79,303.54,90.11,303.73,90.09L303.73,90.09z"/>
		</g>
	</g>
	<g>
		<g>
			<path class="st1" d="M322.68,87.68c-0.08,0.92-0.15,1.84-0.2,2.76c-0.02,0.46-0.04,0.92-0.05,1.38c0,0.44-0.04,0.9,0.05,1.34
				c0.04,0.23,0.41,0.23,0.46,0c0.09-0.44,0.06-0.89,0.08-1.34c0.01-0.46,0.02-0.92,0.03-1.38c0.02-0.92,0.07-1.84,0.12-2.76
				C323.2,87.36,322.7,87.36,322.68,87.68L322.68,87.68z"/>
		</g>
	</g>
	<g>
		<g>
			<path class="st1" d="M422.13,87.99c0.05,0,0.05-0.08,0-0.08C422.08,87.91,422.08,87.99,422.13,87.99L422.13,87.99z"/>
		</g>
	</g>
	<g>
		<g>
			<path class="st2" d="M175.9,181.13c-0.99,0.48-3.6-0.49-4.72-0.65c-1.48-0.21-3.01-0.24-4.51-0.19
				c-3.07,0.09-6.13,0.61-9.06,1.52c-5.82,1.81-11.27,5.2-14.98,10.09c-4.66,6.13-4.95,12.46-5.03,19.78
				c-0.02,1.85,0.08,3.7,0.36,5.53c0.09,0.56,0.68,4.75,1.22,4.83c0.26,0.04,0.5-0.15,0.69-0.34c2.8-2.72,3.81-6.64,5.79-9.9
				c1.14-1.89,2.7-3.54,3.97-5.37c3.04-4.37,6.11-8.71,9.19-13.05c1.44-2.03,2.88-4.07,4.33-6.1
				C163.12,187.3,175.9,181.13,175.9,181.13z"/>
			<g>
				<path class="st3" d="M139.7,266.74v38.26h0.86v-38.26c0-30.42,6.58-54.21,20.84-71.21l-0.3,0.18
					C146.71,212.87,139.7,236.11,139.7,266.74z"/>
			</g>
			<g>
				<path class="st4" d="M133.33,281.92c2.6,4.28,3.93,9.19,3.93,14.62v8.44h0.1c0.24,0,0.49,0.01,0.74,0.01h0.02v-8.45
					c0-0.99-0.04-1.95-0.13-2.9c-0.14-1.63-0.41-3.2-0.81-4.73c-0.67-2.65-1.72-5.14-3.12-7.44L133.33,281.92z"/>
			</g>
			<path class="st5" d="M142.89,237.88c0.03-1.81,1.03-3.99,1.51-5.77c0.55-2.05,1.09-4.11,1.61-6.17
				c0.93-3.65,2.22-6.68,3.84-10.07c1.23-2.57,2.82-4.87,4.05-7.43c0.57-1.19,1.14-2.37,1.82-3.5c1.21-2.02,2.64-3.71,3.67-5.82
				c1.06-2.16,2.5-4.13,4.24-5.78c1.9-1.81,3.81-3.59,5.46-5.61c2-2.46,4.32-4.63,6.81-6.58c-0.99,0.78-4.12,0.78-5.4,1.08
				c-1.88,0.45-3.75,0.97-5.59,1.57c-1.29,0.42-2.56,0.58-3.77,1.26c-1.22,0.69-2.26,1.64-3.41,2.44c-2.16,1.51-4.65,2.47-7,3.67
				c-2.93,1.5-6.61,4.29-7.67,7.43c-1.17,3.5-3.67,6.13-4.44,9.83c-0.8,3.86-0.67,7.83-0.13,11.71c0.27,1.91,0.53,3.82,0.8,5.73
				c0.3,2.13,0.67,4.18,1.39,6.22C141.23,233.63,142.91,236.29,142.89,237.88z"/>
			<g>
				<path class="st4" d="M77.8,279.08c0.4-1.78,2.45-3.85,3.6-5.25c1.44-1.75,3.06-3.37,4.97-4.6c1.54-0.99,3.25-1.72,4.86-2.6
					c3.46-1.89,6.64-4.57,10.53-5.22c2.29-0.39,4.63-0.03,6.93,0.33c3.9,0.61,7.84,1.22,11.52,2.65c3.68,1.43,7.14,3.75,9.21,7.11
					c3.09,5.01,5.73,10.39,7.34,16.07c-3.8-5.68-20.82-12.6-20.82-12.6l-12.51-0.46l-10.18,1.74c0,0-6.01,1.28-6.01,1.28
					c-1.4,0.3-2.83,0.49-4.23,0.74C81.43,278.55,79.35,279.28,77.8,279.08z"/>
				<path class="st5" d="M136.76,287.58c-0.38-0.6-0.51-1.57-0.78-2.23c-0.69-1.69-1.55-3.01-2.65-4.42
					c-2.43-3.13-4.56-6.09-7.74-8.55c-1.17-0.9-2.41-1.73-3.77-2.32c-1.15-0.51-2.37-0.84-3.59-1.17
					c-3.62-0.99-7.33-1.98-11.08-1.76c-1.36,0.08-2.71,0.32-4.08,0.4c-1.11,0.06-2.22,0.02-3.33,0.13
					c-2.03,0.21-3.96,0.92-5.87,1.63c-1.88,0.7-3.76,1.4-5.64,2.1c-1.19,0.44-2.39,0.89-3.41,1.65c-2.5,1.87-4.51,4.3-7.08,6.15
					c0.61-0.44,2.88-0.33,3.68-0.46c1.57-0.25,3.14-0.49,4.72-0.65c3.22-0.33,6.51-0.34,9.66,0.47c1.06,0.27,2.11,0.64,3.2,0.77
					c1.36,0.16,2.72-0.06,4.08-0.24c5.67-0.75,11.47-0.83,17.08,0.25c3.07,0.59,6.07,1.53,8.9,2.85
					C131.71,283.41,135.16,285.07,136.76,287.58z"/>
			</g>
			<path class="st2" d="M175.8,219.93c-0.01,0.21-0.03,0.42-0.04,0.62l-0.03,0.36c-0.18,2.27-0.54,4.41-1.14,6.62
				c-0.4,1.42-0.51,2.96-0.6,4.5c-1.22,5.08-3.22,10.8-6.51,16.23c-2.18,2.27-4.63,4.32-6.59,6.79c-0.8,1.01-1.51,2.09-2.31,3.1
				c-1.16,1.46-2.44,2.67-3.83,3.71c-2.02,1.37-4.24,2.62-6.67,3.71c-0.34,0.15-0.7,0.3-1.05,0.45c0.46-0.2-0.41-5.43-0.44-6.01
				c-0.13-2.13-0.11-4.28,0.33-6.37c0.28-1.35,0.74-2.67,1.07-4.01c0.98-3.91,1.01-8.17,3.15-11.59c1.4-2.23,3.57-3.89,5.01-6.1
				c0.4-0.62,0.74-1.28,1.14-1.9c0.6-0.92,1.37-1.7,2.22-2.4c0.71-0.58,1.33-1.25,2.02-1.82c0.89-0.74,2.11-1.2,3.09-1.82
				c1.04-0.66,2.03-1.39,2.92-2.24c0.6-0.57,1.16-1.2,1.79-1.74c0.97-0.82,2.11-1.4,3.25-1.93c0.52-0.24,0.96-0.47,1.43-0.77
				c0.48-0.31,1.54-0.62,1.87-1.07C175.49,216.81,175.84,219.25,175.8,219.93z"/>
			<g>
				<path class="st3" d="M142.93,304.98c0.29,0,0.58-0.01,0.86-0.01c0.04-2,0.08-3.97,0.12-5.88c0.19-8.35,0.47-15.63,0.86-19.74
					c1.88-19.54,14.74-38.84,27.75-56.92l-0.7-0.5c-13.09,18.18-26.02,37.59-27.92,57.35c-0.4,4.12-0.67,11.43-0.86,19.8
					C143.01,300.99,142.97,302.96,142.93,304.98z"/>
			</g>
			<path class="st5" d="M175.8,219.92v0.01c-0.01,0.21-0.03,0.42-0.04,0.62l-0.03,0.36c-0.18,2.27-0.54,4.41-1.14,6.62
				c-0.4,1.42-0.51,2.96-0.6,4.5c-0.07,1.46-0.14,2.92-0.4,4.31c-0.54,2.86-1.45,5.68-3.03,8.14c-0.88,1.38-1.94,2.61-3.08,3.78
				c-2.18,2.27-4.63,4.32-6.59,6.79c-0.8,1.01-1.51,2.09-2.31,3.1c-1.16,1.46-2.44,2.67-3.82,3.7c0,0.01-0.01,0.01-0.01,0.01
				c-2.02,1.52-4.26,2.67-6.67,3.71c-0.34,0.15-0.7,0.3-1.05,0.45c5.23-17.65,28.86-49.75,28.86-49.75
				C175.49,216.81,175.84,219.25,175.8,219.92z"/>
			<path class="st2" d="M133.97,252.79c-35.41-14.72-33.89-58.41-33.89-58.41c2.47,1.38,4.58,3.29,7.14,4.58
				c2.6,1.31,5.44,2.35,7.44,4.46c0.93,0.98,1.63,2.14,2.48,3.18c2.88,3.53,7.37,5.58,9.87,9.4c2.07,3.16,2.49,7.11,4.04,10.55
				c0.72,1.59,1.67,3.08,2.2,4.74c0.54,1.7,0.6,3.51,0.67,5.29C134.1,242.01,133.92,247.37,133.97,252.79z"/>
			<g>
				<path class="st3" d="M112.55,215.48c11.12,15.46,22.12,31.95,23.72,48.66c0.47,4.97,0.76,14.77,0.91,24.77
					c0.06,3.42,0.09,6.87,0.13,10.15c0.01,2.05,0.03,4.04,0.04,5.91c0.24,0,0.49,0.01,0.74,0.01c-0.01-1.88-0.03-3.87-0.05-5.93
					c-0.01-1.77-0.04-3.58-0.06-5.42c-0.14-11.54-0.42-23.8-0.98-29.57c-1.63-16.9-12.68-33.48-23.86-49.02
					c-0.12-0.17-0.35-0.21-0.52-0.09C112.47,215.1,112.43,215.33,112.55,215.48z"/>
			</g>
			<path class="st5" d="M133.97,252.79c-1.35-0.56-2.74-0.99-4.06-1.55c-1.25-0.53-2.24-1.56-3.38-2.27
				c-1.43-0.9-3.1-1.36-4.54-2.24c-1.38-0.85-2.5-2.06-3.59-3.26c-1.53-1.67-3.06-3.33-4.59-5c-1.26-1.37-2.52-2.75-3.54-4.31
				c-1.14-1.74-2.19-3.84-2.67-5.87c-0.46-1.97-1.37-3.58-2.25-5.42c-1.14-2.39-1.58-4.82-2.14-7.41c-0.27-1.24-0.53-2.48-0.9-3.68
				c-0.33-1.08-0.75-2.14-1.11-3.21c-0.9-2.71-1.58-5.59-1.27-8.45c0.16-1.54,1.18-4.33,0.16-5.71
				C100.16,194.48,127.83,232.1,133.97,252.79z"/>
		</g>
		<g>
			<polygon class="st6" points="140.13,302.1 165.62,302.1 159.47,343.24 140.13,343.24 120.8,343.24 114.65,302.1 			"/>
		</g>
	</g>
	<g>
		
			<rect x="115.86" y="306.55" transform="matrix(-1 -4.489354e-11 4.489354e-11 -1 491.7729 640.0714)" class="st7" width="260.04" height="26.97"/>
		<g>
			
				<rect x="374.13" y="301.71" transform="matrix(-1 -4.410928e-11 4.410928e-11 -1 751.8162 732.2594)" class="st8" width="3.55" height="128.83"/>
			
				<rect x="114.09" y="301.71" transform="matrix(-1 -4.410706e-11 4.410706e-11 -1 231.7295 732.2594)" class="st8" width="3.55" height="128.83"/>
		</g>
		<path class="st9" d="M107.87,310.27c3.65,3.11,13.94,1.11,18.63,1.11c14.34,0,28.68,0,43.02,0c33.49,0,66.98,0,100.47,0
			c29.43,0,58.86,0,88.29,0c7.77,0,27.85,3.17,31.01-5.88c1.38-3.95-1.65-8.33-5.49-9.98c-3.84-1.65-8.2-1.32-12.37-1.02
			c-37.77,2.71-75.69-0.19-113.53-1.78c-32.82-1.38-65.68-1.77-98.53-2.16c-12.94-0.15-25.99-0.3-38.69,2.17
			c-4.74,0.92-9.74,2.41-12.77,6.17C105.62,301.76,104.72,307.59,107.87,310.27z"/>
	</g>
	<g>
		<g>
			<path class="st10" d="M180.99,262.81c-6.57,7.23-11.56,15.9-14.49,25.22c-0.86,2.73-0.13,6.96,0.68,9.67
				c1.83,6.1,4.8,10.39,10.51,11.71c2.61,0.6,5.3,0.51,7.97,0.42c6.45-0.22,16.4-7.74,23.46-7.71c10.38,0.03,17.98,7.53,27.37,6.17
				c3.75-0.55,4.67-3.25,7.14-6.4c2.96-3.78,5.13-10.75,3.96-15.57c-2.76-11.36-18.06-18.71-19.6-27.96"/>
		</g>
		<g>
			<path class="st10" d="M218.67,145.05c0,0,1.67,12.11-3.11,14.6c-3.8,1.98-1.88-12.44-1.88-12.44"/>
			<path class="st11" d="M189.83,184.47c0,0,3.21,3.08,4.49,6.05c5.96,1.33,9.33,1.46,13.54,0.18c2.44-0.75,7.04-3.74,7.36-5.58
				c-0.92-1.73-3.98-2.09-5.27-2.56c-0.45-0.08-0.99-0.14-1.16-0.27l-0.04-0.04c-0.2-0.14-0.34-0.26-0.38-0.41
				c-0.26-0.86-0.36-1.25-0.37-1.71c-0.03-0.36-0.01-0.76-0.01-1.48c-0.05-1.78-0.07-3.74-0.07-3.74l-3.39-1.68l-13.65-10.7
				l0.26,4.05c0,0,1.55,11.68,0.68,16.9C191.75,183.92,190.2,184.17,189.83,184.47z"/>
			<path class="st12" d="M198.2,171.78c0,0,1.56,5.62,9.8,8.34c-0.03-0.36-0.01-0.76-0.01-1.48c-0.05-1.78-0.07-3.74-0.07-3.74
				l-3.39-1.68L198.2,171.78z"/>
			<path class="st11" d="M217.24,163.1c-0.01,0.18-0.01,0.36-0.02,0.54c-0.16,3.33-0.48,8.2-2.57,10.57
				c-2.33,2.65-4.58,2.37-8.07,1.85c-2.76-0.41-5.87-1.51-8.54-3.06c-1.99-1.16-3.74-2.58-4.9-4.16c-1.26-1.71-3.43-2.08-4.28-4
				c-2.52-5.67-0.44-10.73,3.79-15.27c3.91-4.2,15.72-9.78,21.41-7.69C217.64,143.2,217.49,157.73,217.24,163.1z"/>
			<path class="st10" d="M214.22,148.84c-0.02,0.01-0.04,0.02-0.07,0.03c-3.1,1.26-6.42,1.9-9.77,1.92
				c-1.24,0.01-2.49,0.25-3.72,0.16c-0.73-0.06-2.04-0.71-2.72-0.22c-0.85,0.62-0.21,4.39-0.26,5.37c-0.13,2.27-0.49,4.65-1.3,6.06
				c-0.74,1.3-0.59-4.71-3.85-5.33c-2.01-0.38-0.48,8.44-1.56,9.03c0.48,2.54,1.12,8.43,1.08,11.58c-1.66,1.26-1.82-7.3-3.22-8.86
				c-1.4-1.55-8.95-10.49-9.77-15.5c-0.89-5.51,1.38-9.62,6.41-10.33c-1.41-3.44,1.35-6.87,4.45-8.25
				c3.03-1.35,7.55-2.49,12.57,0.01c0.34,0.17,2.77-0.97,3.26-1.09c1.18-0.29,2.39-0.49,3.61-0.58c2.32-0.17,4.79,0.03,6.91,1.05
				c4.85,2.33,5.03,9.46,1.22,13C216.58,147.76,215.41,148.35,214.22,148.84z"/>
			<g>
				<path class="st13" d="M210.55,157.66c0.63,1.49,1.07,2.96,1.55,4.43c0.06,0.18,0.11,0.39,0.16,0.51
					c0.07,0.17,0.16,0.36,0.23,0.59c0.03,0.12,0.06,0.24,0.07,0.42c0.01,0.19-0.06,0.39-0.17,0.54c-0.23,0.3-0.47,0.37-0.62,0.45
					c-0.63,0.34-1.27,0.8-1.9,1.3c0.31-0.76,0.81-1.41,1.48-1.96c0.18-0.13,0.31-0.24,0.31-0.27c0-0.01-0.01-0.01-0.01-0.02
					c-0.01-0.02-0.03-0.09-0.06-0.16l-0.23-0.5c-0.1-0.23-0.15-0.41-0.22-0.6C210.68,160.87,210.4,159.28,210.55,157.66z"/>
			</g>
			<g>
				<g>
					<path class="st10" d="M203.89,156.55c-0.25,0.36-0.13,0.7-0.09,1.11c0.02,0.19,0.03,0.37,0.01,0.56c0,0.07-0.01,0.14-0.03,0.21
						c0.23-0.15,0.27-0.19,0.13-0.12c0.19,0.05,0.37,0.1,0.56,0.15c-0.09-0.1-0.07-0.47-0.07-0.58c0.02-0.25,0.12-0.45,0.25-0.66
						c-0.27,0.07-0.53,0.14-0.8,0.21c0.03,0.03,0.06,0.05,0.09,0.08c0.37,0.41,1.12-0.02,0.94-0.55c-0.09-0.27-0.18-0.42-0.44-0.54
						c-0.28-0.13-0.64-0.09-0.8,0.21c-0.47,0.86-0.46,1.74-0.05,2.6c0.09,0.18,0.35,0.34,0.56,0.32c0.69-0.07,0.98-0.59,1.06-1.23
						c0.08-0.63,0.13-1.65-0.55-1.97C204.37,156.21,204.08,156.28,203.89,156.55L203.89,156.55z"/>
				</g>
			</g>
			<g>
				<g>
					<path class="st10" d="M213.39,157.19c-0.07,0.27,0.03,0.49,0.08,0.75c0.03,0.15,0.04,0.32,0.03,0.48
						c-0.01,0.1-0.13,0.35,0.03,0.3c0.13,0.02,0.26,0.03,0.39,0.05c-0.17-0.08-0.1-0.39-0.06-0.51c0.02-0.09,0.05-0.17,0.1-0.25
						c0.1-0.12,0.1-0.13-0.01-0.04c-0.17-0.02-0.33-0.04-0.5-0.07c-0.1-0.19-0.12-0.18-0.04,0.02c0.03,0.1,0.04,0.21,0.04,0.31
						c0,0.05,0,0.11,0,0.16c-0.1,0.33,0.11,0.35,0.64,0.07c0.02-0.14-0.06-0.24-0.02-0.4c0.05-0.19,0.17-0.35,0.22-0.54
						c0.13-0.47-0.44-0.99-0.88-0.68c-0.57,0.4-0.71,1.16-0.58,1.82c0.12,0.64,0.72,1.29,1.4,0.89c1.06-0.63,0.48-3.58-0.88-2.71
						c-0.54,0.34-0.7,1.12-0.59,1.7c0.1,0.51,0.39,1.27,1.04,1.15c1.1-0.2,1.01-2.61-0.12-2.71
						C213.55,156.97,213.42,157.07,213.39,157.19L213.39,157.19z"/>
				</g>
			</g>
			<g>
				<g>
					<path class="st10" d="M205.61,153.23c-0.87-1.04-2.01-1.12-3.31-1.1c-1.32,0.02-2.83,0.11-3.86,1.02
						c-0.25,0.22,0.01,0.64,0.32,0.55c1.76-0.51,4.87-1.48,6.5-0.12C205.5,153.79,205.82,153.48,205.61,153.23L205.61,153.23z"/>
				</g>
			</g>
			<g>
				<g>
					<path class="st10" d="M212.64,153.52c0.85-0.28,1.62-0.63,2.54-0.58c0.83,0.04,1.49,0.51,2.29,0.58
						c0.14,0.01,0.2-0.15,0.15-0.26c-0.79-1.69-4.16-1.34-5.21-0.13C212.28,153.29,212.41,153.6,212.64,153.52L212.64,153.52z"/>
				</g>
			</g>
			<g>
				<path class="st14" d="M194.04,158.28c0,0,2.76,6.8,6.97,7.11"/>
				<path class="st14" d="M191.12,165.84c0,0,2.93,5.45,8.05,7.37"/>
				<path class="st6" d="M217.31,161.91c0,2.79-0.07,9.36-2.66,12.31c-2.33,2.65-4.58,2.37-8.07,1.85
					c-2.76-0.41-5.87-1.51-8.54-3.06c0.76-1.65,1.75-4.65,1.16-8.14c0,0,5.03-0.99,8.27-1.87c3.24-0.88,4.54-1.2,5.85-1.37
					C214.62,161.45,216.36,161.89,217.31,161.91z"/>
			</g>
			<path class="st11" d="M195.11,159.39c-0.19-0.45-0.62-1.4-1.47-2.06c-0.9-0.7-3.51-1.2-4.77,1.46
				c-1.39,2.92,2.02,11.23,5.18,7.85C196.52,163.97,195.85,161.11,195.11,159.39z"/>
			<path class="st11" d="M190.45,159.44c0,0,0.99-1.57,2.56-0.33c1.28,1.01,1.55,5,0.01,5.74c-1.58,0.75-2.85-1.18-1.95-2.78
				c0.18-0.31,0.43-0.51,0.69-0.58c1.33-0.37,1.15-1.75,0.54-2.2C191.92,159.02,191.12,158.97,190.45,159.44z"/>
		</g>
		<g>
			<g>
				<g>
					<path class="st11" d="M232.01,389.73c-0.54,2.97-2.88,7.11-2.88,7.11l0.18,6.28l3.35,1.5l9.49-8.25c0,0,0.57-4.77,0.4-4.67
						L232.01,389.73z"/>
					<path class="st10" d="M258.95,414.77c-1.48,1.24-8.26,1.53-12.64,0.79c-4.38-0.73-8.52-3.66-10.3-4.69
						c-1.79-1.04-9.13-1.68-9.8-2.75c-0.44-0.72-0.22-1.37-0.02-1.73c0.11-0.18,0.21-0.29,0.21-0.29c-0.15-3.82,1.57-9.48,2.27-9.67
						c0.7-0.18,0.71,2.28,1.15,3.15c0.42,0.88,1.96,2.06,4.04,1.18c2.1-0.89,2.91-3.73,5.3-4.23c2.4-0.5,3.38-0.03,3.38-0.03
						c2.5,1.6,6.27,7.2,8.96,9.47c2.69,2.26,6.74,3.98,7.47,4.69c0.74,0.71,0.36,2.3,0.36,2.3s0.02,0.01,0.05,0.03
						C259.56,413.11,260.22,413.69,258.95,414.77z"/>
				</g>
				<path class="st10" d="M262.91,296.6c-0.05-13.83-23.08-22.64-23.08-22.64l-20.88,12.37c0,0-0.95,17.45,6.93,20.41
					c2.89,1.09,5.23,2.33,7.04,3.48c-0.25,1.77-0.44,3.54-0.61,5.31c-1.65,17.89-1.24,35.93,0.46,53.83
					c-0.06,3.74-0.12,7.35-0.22,10.57c-0.18,5.69-1.39,12.61-1.39,12.61c6.09,3.42,11.24,1.62,11.24,1.62s17.39-58.37,17.39-75.08
					c0-0.01,0-0.04,0-0.06C261.55,310.66,262.93,302.35,262.91,296.6z"/>
			</g>
			<path class="st6" d="M258.95,414.77c-1.48,1.24-8.26,1.53-12.64,0.79c-4.38-0.73-8.52-3.66-10.3-4.69
				c-1.79-1.04-9.13-1.68-9.8-2.75c-0.44-0.72-0.22-1.37-0.02-1.73c1.99,0.17,4.1,0.73,4.94,0.81c1.17,0.1,2.38,0.05,3.47,0.49
				c0.85,0.35,1.56,0.97,2.27,1.55c5.79,4.56,13.8,6.14,20.88,4.12c0.53-0.15,1.08-0.34,1.62-0.37
				C259.56,413.11,260.22,413.69,258.95,414.77z"/>
		</g>
		<g>
			<g>
				<path class="st15" d="M228.26,267.49c7.79,5.15,15.73,9.59,22.71,15.91c3.35,3.03,6.4,6.52,7.83,10.88
					c1.1,3.37,0.29,6.97-0.32,10.36c-1.51,8.42-2.53,16.91-3.97,25.34c-1.65,9.61-3.54,19.18-5.54,28.73
					c-2.28,10.85-4.69,21.67-7.05,32.51c-0.07,0.33,0.43,0.47,0.51,0.14c4.59-20.32,9.17-40.66,12.73-61.19
					c1.54-8.88,2.74-17.8,4.24-26.68c0.48-2.81,1.07-5.83,0.31-8.64c-0.98-3.65-3.21-6.92-5.8-9.62c-3.37-3.52-7.32-6.56-11.28-9.38
					c-4.47-3.18-9.2-6.37-14.19-8.66C228.24,267.1,228.07,267.37,228.26,267.49L228.26,267.49z"/>
			</g>
		</g>
		<g>
			<path class="st6" d="M235.1,263.59c0.16,0.67,0.23,1.37,0.28,2.16c0.02,0.4-0.15,4.59-0.15,4.59c-8.35-2.91-17.63-3.1-26.09-0.52
				c-5.14,1.57-10.79,1.69-16.05,0.58c-2.68-0.57-5.29-1.46-7.75-2.65c-0.82-0.4-6.74-3.3-6.57-4.25c0.66-3.87,1.84-7.65,2.91-11.42
				c0.8-2.83,1.45-5.67,1.97-8.49c3.01-16.2,1.86-31.58,2.24-38.66c0.89-16.18,4.27-20.66,4.39-20.8l1.67,0.72
				c6.58,2.83,14.13,2.19,20.13-1.72c0,0,0.81,0.93,2.06,3.95c0.4,0.96,0.84,2.13,1.32,3.55c1.02,3.06,2.21,7.26,3.44,12.99
				c2.88,13.45,4.94,35.31,7.24,41.76c1.58,4.43,3.86,8.64,6.13,12.74c0.73,1.32,1.56,2.59,2.25,3.93
				C234.79,262.56,234.97,263.07,235.1,263.59z"/>
			<path class="st16" d="M185.89,204.92c-0.46,8.32,1.21,28.05-4.21,47.14c-0.67,2.37-1.25,4.29-1.75,5.87
				c-1.12,3.52-1.83,5.26-2.25,6.1c-0.76,0.36-1.48,0.73-2.15,1.09c-1.06,0.56-3.68,2.87-4.95,2.3c-0.38-0.17-0.65-0.51-0.88-0.86
				c-1.27-1.92-0.54-3.95-0.2-6.06c0.1-0.64,0.2-1.29,0.31-1.97c0.31-2.01,0.62-4.2,0.92-6.5c1.04-8.1,1.88-17.61,1.57-25.66
				c-0.4-10.09-2.64-17.06-4.35-21.9c-1.38-3.93-2.41-6.47-1.83-8.2c0.08-0.24,0.26-0.5,0.55-0.79c1.62-1.71,6.35-4.1,11.4-6.34
				c4.46-1.98,9.17-3.85,12.2-5.01C190.17,184.26,186.79,188.74,185.89,204.92z"/>
			<path class="st16" d="M237.23,264.5c0.23,2.88-0.17,5.67-2.76,7.48c-1.41-0.61-2.5-1.81-3.25-3.15s-1.2-2.82-1.63-4.3
				c-1.1-3.74-1.37-7.59-2.11-11.43c-1.51-7.87-3.21-15.66-4.39-23.59c-1.29-8.65-2.36-17.36-4.19-25.91
				c-1.8-8.39-3.5-13.51-4.76-16.54c-1.22-2.93-2.02-3.89-2.06-3.94c2.23,0.83,6.13,2.32,10.14,4.07
				c5.27,2.29,10.76,5.02,13.02,7.28c0.34,0.34,0.62,0.67,0.85,1.01c1.51,2.15,1.02,4.28,0.01,7.03c-1.12,3.07-2.88,6.89-3.23,12.34
				c-0.12,1.86-0.09,4.48,0.06,7.56c0.17,3.53,0.47,7.67,0.85,11.94c0.37,4.19,0.8,8.52,1.23,12.53c0.19,1.89,0.4,3.72,0.59,5.43
				c0.04,0.36,0.08,0.72,0.12,1.07c0.19,1.71,0.38,3.29,0.54,4.69C236.49,259.99,237.05,262.27,237.23,264.5z"/>
			<g>
				<path class="st11" d="M245.25,269.11c0,0,1.06,7.04-4.28,14.31c-1.34,3.97-0.35,6.76-4.08,9c-1.01,2.08-1.48,3.94-2.92,3.22
					c-1.28,1.44-2.59,2.46-3.39-0.56c-1.41,1.41-3.49-0.73-2.94-11.11c0.05-4.43,2.35-8.69,9.88-16.6
					C242.28,265.7,245.25,269.11,245.25,269.11z"/>
				<path class="st11" d="M228.08,280.84c0,0-4.03,3.93-2.75,5.31c1.04,0.53,2.25-0.7,2.25-0.7S236.92,276.75,228.08,280.84z"/>
				<g>
					<path class="st17" d="M230.58,295.09c-0.6-1.69-0.86-3.42-1.01-5.17c-0.06-0.87-0.09-1.75-0.05-2.63
						c0.06-0.87,0.09-1.8,0.5-2.62c0.02,0.88,0.23,1.72,0.32,2.59c0.12,0.86,0.2,1.72,0.28,2.59
						C230.73,291.57,230.81,293.31,230.58,295.09z"/>
				</g>
				<g>
					<path class="st17" d="M233.96,295.65c-0.58-1.78-0.82-3.59-0.94-5.42c-0.04-0.91-0.06-1.83,0.01-2.75
						c0.07-0.91,0.17-1.86,0.52-2.73l0.31,2.72c0.1,0.9,0.17,1.8,0.23,2.71C234.17,291.98,234.21,293.8,233.96,295.65z"/>
				</g>
				<g>
					<path class="st17" d="M236.89,292.43c-0.27-0.77-0.41-1.55-0.5-2.34c-0.09-0.79-0.1-1.58-0.06-2.38
						c0.05-0.79,0.15-1.59,0.37-2.37c0.21-0.77,0.51-1.56,1.05-2.18c-0.13,0.8-0.18,1.56-0.23,2.32l-0.13,2.29
						C237.27,289.3,237.2,290.84,236.89,292.43z"/>
				</g>
			</g>
			<path class="st16" d="M248.56,261.78c-0.05,0.19-0.09,0.38-0.14,0.57c-2.46,10.03-3.71,13.22-3.71,13.22
				c-1.74,0-11.01-3.97-11.01-3.97l0.93-9.38l0.22-2.19l0.76-7.72l1.12-11.3c0,0-1.18-2.76-2.94-6.66
				c-3.56-7.93-9.5-20.56-12.76-24.31l12.07-11.66l2.99-2.89c7.02,8.92,14.05,25.32,15.55,42.25
				C252.24,244.46,250.42,254.1,248.56,261.78z"/>
			<g>
				<path class="st11" d="M171.16,268.19c0,0,2.61,6.13,10.44,9.29c3.02,2.5,3.6,5.21,7.67,5.16c1.83,1.15,3.11,2.41,3.91,1.13
					c1.73,0.52,3.27,0.68,2.42-2.11c1.82,0.43,2.42-2.29-3.11-10.29c-2.22-3.5-6.14-5.77-16.02-8.36
					C171.85,264.02,171.16,268.19,171.16,268.19z"/>
				<path class="st11" d="M190.59,269.1c0,0,5.14,1.15,4.8,2.87c-0.57,0.94-2.13,0.55-2.13,0.55S181.54,270.18,190.59,269.1z"/>
				<g>
					<path class="st17" d="M195.59,281.66c-1.08-1.29-1.88-2.71-2.64-4.14c-0.36-0.73-0.72-1.45-1.04-2.2
						c-0.35-0.74-0.59-1.51-0.99-2.23c0.75,0.44,1.23,1.17,1.71,1.83c0.48,0.68,0.88,1.39,1.26,2.12
						C194.63,278.5,195.26,280.01,195.59,281.66z"/>
				</g>
				<g>
					<path class="st17" d="M193.17,283.77c-1.13-1.34-1.99-2.8-2.81-4.29c-0.4-0.75-0.79-1.5-1.14-2.27l-1.07-2.33
						c0.72,0.52,1.27,1.22,1.78,1.91c0.51,0.7,0.94,1.44,1.36,2.18C192.09,280.49,192.79,282.06,193.17,283.77z"/>
				</g>
				<g>
					<path class="st17" d="M189.27,282.64c-1.05-1.09-1.87-2.28-2.71-3.45l-1.22-1.76c-0.42-0.58-0.82-1.16-1.3-1.75
						c0.74,0.22,1.37,0.7,1.93,1.2c0.56,0.51,1.03,1.1,1.47,1.7c0.42,0.62,0.8,1.25,1.11,1.93
						C188.85,281.19,189.12,281.89,189.27,282.64z"/>
				</g>
			</g>
			<path class="st16" d="M181.6,264.5c0,0-2.31,0.55-4.59,1.82c-1.84,1.02-3.64,2.5-4.21,4.52c0,0-0.89-1.05-2.17-2.74
				c-0.58-0.78-1.25-1.7-1.95-2.71c-1.67-2.42-3.52-5.41-4.85-8.4c-4.03-9.04-5.43-10.88-5.59-17.8
				c-0.18-7.88,0.39-15.72,1.55-23.52c1.01-6.72,2.54-13.66,6.33-19.4c0.17-0.26,0.34-0.52,0.53-0.77c0-0.01,0.01-0.01,0.01-0.02
				l0,0l3.42,4.55l9.04,12c1.7,5.7-3.43,29.23-3.43,29.23l3.56,14.01l0.43,1.71l0.24,0.94L181.6,264.5z"/>
			<g>
				<g>
					<path class="st18" d="M190.93,186.36c5.63,4.37,13.74,3.39,19.53,0.04c0.08-0.04-0.1-0.2-0.17-0.17
						c-5.7,3.3-13.74,4.35-19.29,0.04C190.89,186.18,190.82,186.27,190.93,186.36L190.93,186.36z"/>
				</g>
			</g>
			<path class="st19" d="M224.53,243.87c0,0-4.06-3.16-10.46-1.98"/>
		</g>
		<g>
			<g>
				<g>
					<path class="st11" d="M213.73,395.11l-0.43-4.1l-9.1,0.2l0.01,6.13l1.66,6.45c0,0,7.25,0.07,7.31-0.07
						c0.06-0.15,1.74-7.2,1.74-7.2L213.73,395.11z"/>
					<path class="st10" d="M216.47,405.61c-1.16,4.77-5.53,4.16-4.78,8.64c0.23,1.35,0.12,2.31-0.19,3.04
						c0.15,1.55-0.78,1.91-0.78,1.91c-7.57,2.89-14.61-0.61-14.79-1.65c-0.12-0.69,0.03-0.84,0.12-1.61
						c-0.01-0.04-0.01-0.08-0.01-0.12c-0.08-0.5-0.05-1.12,0.09-1.78c0.43-2.06,4.04-6,4.84-9.03c0.79-3.03,1.47-5.82,2.39-7.01
						c0.92-1.19,4.04-1.76,6.63-0.99c2.58,0.77,3.07,2.43,3.89,1.2c0.82-1.24-0.14-3.09-0.14-3.09c1.33-0.34,2.7,3.71,2.46,8.07
						c0,0.06-0.01,0.14-0.01,0.21C216.46,403.99,216.69,404.71,216.47,405.61z"/>
				</g>
				<path class="st10" d="M213.34,375c-0.38-7.56-1.03-15.75-1.92-23.3c-0.93-7.91-2.06-15.8-3.4-23.65
					c-0.88-5.17-1.87-10.37-3.69-15.31c-0.08-0.21-0.17-0.42-0.25-0.63c-1.03-5.04-2.38-10.06-4.98-14.33
					c-2.96-4.86-7.83-8.66-13.14-8.59c-1.78,0.02-3.62,0.52-4.95,1.82c-1.23,1.21-14.81,1.99-14.43,3.76
					c3.05,14.06,9.3,26.22,14.41,38.06c4.03,11.14,8.09,22.28,12.21,33.39c3.46,9.34,6.31,18.99,10.42,28.04
					c1.99-0.07,3.94,0.01,5.87-0.3c0.29-0.05,5.29-0.49,5.27-1.04C214.77,392.87,213.87,385.56,213.34,375z"/>
			</g>
			<path class="st6" d="M216.47,405.61c-1.16,4.77-5.53,4.16-4.78,8.64c0.23,1.35,0.12,2.31-0.19,3.04
				c0.15,1.55-0.78,1.91-0.78,1.91c-7.57,2.89-14.61-0.61-14.79-1.65c-0.12-0.69,0.03-0.84,0.12-1.61
				c-0.01-0.04-0.01-0.08-0.01-0.12c0.92,0.54,1.99,0.77,3.04,0.96c2.89,0.53,5.86,0.84,8.8,0.55c1.9-0.18,2.1-0.09,2.06-1.95
				c-0.04-2.36,0.19-5.43,2.38-6.84c0.36-0.24,0.75-0.41,1.1-0.65c1.53-1.02,2.19-2.91,2.76-4.67c0-0.01,0.01-0.03,0.02-0.04
				c0,0.06-0.01,0.14-0.01,0.21C216.46,403.99,216.69,404.71,216.47,405.61z"/>
		</g>
		<path class="st20" d="M189.36,430.07c0.09,3.02,24.66,4.53,43.11,4c18.45-0.53,25.87-3.22,23.7-5.92
			c-3.29-4.09-15.06-3.31-33.51-2.79C204.21,425.9,189.27,427.04,189.36,430.07z"/>
		<g>
			<g>
				<path class="st21" d="M182.82,218.45c1.76,0,1.76-2.73,0-2.73C181.06,215.71,181.06,218.45,182.82,218.45L182.82,218.45z"/>
			</g>
		</g>
		<g>
			<g>
				<path class="st21" d="M182.55,228.78c1.49,0,1.49-2.31,0-2.31C181.06,226.46,181.06,228.78,182.55,228.78L182.55,228.78z"/>
			</g>
		</g>
		<g>
			<g>
				<path class="st21" d="M167.68,195.49c2.36,1.65,4.07,4.04,4.95,6.78c0.05,0.15,0.28,0.09,0.24-0.07c-0.73-2.95-2.48-5.35-5.03-7
					C167.67,195.09,167.51,195.37,167.68,195.49L167.68,195.49z"/>
			</g>
		</g>
		<g>
			<g>
				<path class="st21" d="M233.85,234.81c0-3.2-0.24-6.38-0.17-9.59c0.07-3.14,0.23-6.28,0.18-9.43c-0.08-5.1-0.51-10.74-2.97-15.32
					c-0.14-0.26-0.6-0.08-0.49,0.21c1.98,5.56,2.8,10.93,2.79,16.84c-0.01,5.66-0.84,11.75,0.38,17.32
					C233.61,235.01,233.85,234.97,233.85,234.81L233.85,234.81z"/>
			</g>
		</g>
		<g>
			<g>
				<path class="st21" d="M174.89,240.55c-2.33-1.38-5.01-2.24-7.74-2.12c-0.27,0.01-0.36,0.44-0.07,0.49
					c2.65,0.45,5.15,0.99,7.64,2.03C174.95,241.04,175.09,240.67,174.89,240.55L174.89,240.55z"/>
			</g>
		</g>
		<g>
			<g>
				<path class="st21" d="M174.67,239.11c-0.89-2.43-2.25-5.15-5.15-5.4c-0.13-0.01-0.26,0.13-0.25,0.25
					c0.06,1.44,1.13,3.23,2.74,3.22c0.14,0,0.21-0.2,0.07-0.27c-1.26-0.67-2.26-1.35-2.31-2.95c-0.08,0.08-0.17,0.17-0.25,0.25
					c2.69,0.24,3.84,2.87,4.82,5.03C174.43,239.44,174.75,239.31,174.67,239.11L174.67,239.11z"/>
			</g>
		</g>
		<g>
			<g>
				<path class="st21" d="M225.36,235.01c0.91-0.27,2.04-0.62,2.71-1.31c0.09-0.1,0.03-0.26-0.11-0.26c-0.97,0-2,0.57-2.83,1.03
					C224.83,234.63,225.03,235.11,225.36,235.01L225.36,235.01z"/>
			</g>
		</g>
		<g>
			<g>
				<path class="st21" d="M222.81,220.33c0.32,0.04,0.56-0.01,0.87-0.06c0.21-0.04,0.21-0.39,0-0.43c-0.31-0.06-0.55-0.11-0.87-0.06
					C222.45,219.82,222.45,220.29,222.81,220.33L222.81,220.33z"/>
			</g>
		</g>
		<g>
			<g>
				<path class="st21" d="M233.84,271.6c0.36-3.49,0.66-6.99,1.02-10.48c0.36-3.48,1.05-6.93,1.33-10.41
					c0.02-0.24-0.35-0.28-0.41-0.06c-0.92,3.21-1.13,6.75-1.48,10.06c-0.38,3.63-0.65,7.25-0.75,10.89
					C233.55,271.79,233.82,271.78,233.84,271.6L233.84,271.6z"/>
			</g>
		</g>
		<g>
			<g>
				<path class="st21" d="M237,241.53c1.35-1.32,2.8-4.81,5.09-4.41c-0.07-0.09-0.14-0.19-0.21-0.28c-0.05,0.33-0.21,0.54-0.49,0.63
					c-0.12,0.06-0.08,0.24,0.04,0.28c0.63,0.19,1.02-0.31,1.03-0.91c0-0.12-0.09-0.25-0.21-0.28c-1.07-0.22-1.96,0.25-2.72,0.99
					c-1.07,1.03-2.13,2.43-2.86,3.71C236.54,241.48,236.83,241.7,237,241.53L237,241.53z"/>
			</g>
		</g>
		<g>
			<g>
				<path class="st21" d="M236.97,242.12c1.58-1.1,3.17-1.14,5-0.87c0.21,0.03,0.36-0.24,0.15-0.37c-1.72-1.08-4.03-0.43-5.43,0.89
					C236.52,241.94,236.76,242.27,236.97,242.12L236.97,242.12z"/>
			</g>
		</g>
		<g>
			<g>
				<path class="st21" d="M235.06,194.68c-0.33-0.16-0.75-0.17-1.08,0.01c-0.11,0.06-0.11,0.23,0,0.3c0.33,0.18,0.75,0.16,1.08,0.01
					C235.18,194.93,235.18,194.73,235.06,194.68L235.06,194.68z"/>
			</g>
		</g>
		<g>
			<g>
				<path class="st21" d="M168.32,195.05c0.52,0.03,1.01,0.17,1.46,0.43c0.44,0.25,0.7,0.62,1.07,0.95
					c0.15,0.13,0.44,0.01,0.36-0.21c-0.4-1.1-1.81-1.66-2.89-1.65C168.01,194.58,168.01,195.04,168.32,195.05L168.32,195.05z"/>
			</g>
		</g>
		<g>
			<g>
				<path class="st21" d="M181.78,264.45c-1.1-4.19-1.99-8.45-3.21-12.61c-1.4-4.75-2.62-9.23-2.24-14.24
					c0.65-8.78,4.62-17.34,3.57-26.24c-0.04-0.32-0.52-0.34-0.51,0c0.34,9.3-3.25,17.91-3.79,27.1c-0.26,4.48,0.76,8.52,2.08,12.77
					c1.37,4.4,2.21,8.97,3.75,13.32C181.5,264.77,181.84,264.69,181.78,264.45L181.78,264.45z"/>
			</g>
		</g>
		<g>
			<g>
				<path class="st22" d="M199.37,298.74c0.72,1.82,1.44,3.78,2.52,5.42c0.08,0.13,0.29,0.05,0.25-0.11
					c-0.48-1.9-1.45-3.76-2.31-5.51C199.7,298.29,199.26,298.47,199.37,298.74L199.37,298.74z"/>
			</g>
		</g>
		<g>
			<g>
				<path class="st22" d="M233.26,310.9c0.22-0.99,0.35-2,0.58-3c0.23-0.99,0.56-1.97,0.74-2.97c0.04-0.24-0.29-0.43-0.42-0.18
					c-0.93,1.76-1.39,4.1-1.37,6.08C232.8,311.1,233.2,311.17,233.26,310.9L233.26,310.9z"/>
			</g>
		</g>
		<g>
			<g>
				<path class="st15" d="M177.05,276.49c-3.49,6.35-6.34,12.74-4.71,20.12c0.88,4.01,2.52,7.84,3.94,11.68
					c1.39,3.76,2.79,7.52,4.19,11.28c5.8,15.55,11.54,31.12,16.94,46.81c3.01,8.75,5.87,17.55,8.56,26.41
					c0.1,0.34,0.64,0.2,0.54-0.15c-8.77-30.06-20.15-59.31-31.1-88.63c-1.66-4.44-3.41-9.06-3.09-13.89c0.32-4.83,2.79-9.28,5-13.48
					C177.41,276.47,177.15,276.31,177.05,276.49L177.05,276.49z"/>
			</g>
		</g>
	</g>
	<g>
		<path class="st20" d="M268.37,425.72c0.2,6.95,35.12,11.04,61.29,10.29c26.17-0.75,36.63-6.74,33.48-13.01
			c-4.77-9.49-21.46-8-47.63-7.25C289.33,416.5,268.17,418.77,268.37,425.72z"/>
		<g>
			<g>
				<g>
					<path class="st23" d="M229.92,215.12c0.22,1.13,0.03,4.47-1.92,3.67c-1.43-0.59-1.73-2.76-1.28-4.04
						c0.78-2.24,2.59,0.34,2.47,1.71c-0.03,0.35-0.25,1.18-0.61,1.38c-0.72,0.39-1.18-0.47-1.24-1.03
						c-0.04-0.39-0.04-0.66,0.33-0.81c0.4-0.21,0.52,0.02,0.36,0.67c-0.6,0.08-0.38,0.03,0.68-0.15c0.34-0.6-0.22-1.27-0.86-1.12
						c-0.26,0.06-0.53,0.12-0.79,0.18c-0.94,0.21-0.53,1.59,0.39,1.43c0.27-0.04,0.54-0.09,0.81-0.13
						c-0.29-0.37-0.58-0.75-0.86-1.12c-0.4,0.61-0.61,1.66,0.17,2.08c0.8,0.43,1.62-0.33,1.7-1.11c0.2-2.04-2.75-2.22-3.18-0.33
						c-0.47,2.03,2.28,2.62,3.41,1.29c1.32-1.56-0.58-4.23-2.49-3.58c-1.99,0.67-1.77,3.71-0.48,4.92c1.75,1.64,3.85,0.02,4.27-1.93
						c0.43-1.99-0.78-4.84-3.05-5.06c-2.15-0.2-3.15,2.22-3.09,4.02c0.07,2.14,1.76,4.9,4.25,4.4c2.41-0.49,2.83-3.71,2.18-5.64
						C230.82,214.06,229.77,214.36,229.92,215.12L229.92,215.12z"/>
				</g>
			</g>
			<g>
				<path class="st11" d="M247.62,216.5c-2.57-2.1-8.88-6.07-11.01-6.16c-1.67-0.07-3.29,0.58-4.72,1.4
					c-1.32,0.76-2.85,1.68-3.61,3.05c-0.1,0.19-0.17,0.44-0.04,0.6c0.11,0.14,0.32,0.15,0.5,0.13c1.17-0.09,2.29-0.45,3.43-0.73
					c2.41-0.59,4.9-0.8,7.37-0.61"/>
			</g>
			<g>
				<path class="st11" d="M238.71,215.02c-6.37-1-6.23,1.04-6.41,2.04c-0.18,1.01,0.65,2.07,1.55,2.53c-0.28,1.71,0,2.1,1.36,3.14
					c-0.69,1.95,2.32,2.6,4,2.76c0.69,0.07,2.11-0.12,2.73-0.44c0.61-0.32,0.72-0.77,0.47-1.43c1.32,1.5,4.66,1.68,6.02,0.22
					c0.25-0.26,0.47-0.58,0.81-0.69c0.26-0.09,0.73-0.85,1-0.81c1.54,0.25,1.44-0.49,2.99-0.24"/>
			</g>
			<g class="st24">
				<g>
					<path class="st25" d="M234.73,219.75c1.07,0.21,5.69,0.92,5.16-1.33c-0.02-0.08-0.14-0.06-0.14,0.02
						c-0.03,1.79-3.86,1.33-4.98,1.15C234.67,219.57,234.62,219.73,234.73,219.75L234.73,219.75z"/>
				</g>
			</g>
			<g class="st24">
				<g>
					<path class="st25" d="M235.76,222.93c1.4,0.36,3.23,0.38,4.42-0.58c0.74-0.6,1.03-1.78,0.15-2.37
						c-0.08-0.05-0.17,0.07-0.1,0.13c1.14,1.09-0.27,2.19-1.27,2.52c-1.03,0.34-2.09,0.35-3.14,0.11
						C235.69,222.72,235.64,222.9,235.76,222.93L235.76,222.93z"/>
				</g>
			</g>
			<g class="st24">
				<g>
					<path class="st25" d="M240.86,222.3c0.36,0.1,0.65,0.29,0.9,0.57c0.23,0.26,0.3,0.58,0.49,0.85c0.08,0.11,0.29,0.12,0.32-0.04
						c0.15-0.9-0.92-1.58-1.68-1.66C240.73,221.99,240.71,222.25,240.86,222.3L240.86,222.3z"/>
				</g>
			</g>
			<path class="st6" d="M302.88,313.54c0,0,28.79,4.81,39,2.13c10.21-2.67-14.46-38.45-14.46-38.45s-11.79-1.78-12.99-1.82
				c-1.2-0.03-11.55,38.99-11.55,38.99"/>
			<g>
				<g>
					<path class="st11" d="M314.7,397.08c0.6,3.31,3.22,7.95,3.22,7.95l-0.2,7.02l-3.75,1.67l-10.6-9.21c0,0-0.64-5.33-0.45-5.21
						L314.7,397.08z"/>
					<path class="st23" d="M321.19,417.61c-0.75,1.2-8.94,1.92-10.95,3.08c-2,1.15-6.63,4.41-11.52,5.24
						c-4.89,0.83-12.45,0.5-14.11-0.89c-1.64-1.39-0.42-2.02-0.42-2.02s-0.11-0.49-0.1-1.06c0.01-0.53,0.11-1.13,0.51-1.52
						c0.8-0.79,5.33-2.71,8.34-5.24c3-2.53,7.21-8.8,10.01-10.58c0,0,1.1-0.52,3.77,0.04c2.67,0.55,3.59,3.74,5.92,4.72
						c2.33,0.99,4.04-0.34,4.52-1.32c0.49-0.96,0.5-3.73,1.29-3.52c0.78,0.23,2.7,6.55,2.53,10.82c0,0,0.17,0.19,0.31,0.52
						C321.49,416.29,321.61,416.93,321.19,417.61z"/>
				</g>
				<g>
					<path class="st11" d="M327.28,407.03l0.43-4.15l9.21,0.21l-0.01,6.2l-1.68,6.52c0,0-7.33,0.07-7.39-0.07
						c-0.06-0.15-1.76-7.28-1.76-7.28L327.28,407.03z"/>
					<path class="st23" d="M345.29,429.72c-0.1,0.56-2.12,1.81-5.12,2.43c-0.3,0.06-0.61,0.12-0.91,0.16
						c-0.3,0.05-0.61,0.09-0.92,0.12c-0.3,0.03-0.61,0.05-0.92,0.08c-0.32,0.02-0.65,0.02-0.97,0.02c-0.25,0-0.51-0.01-0.76-0.02
						c-0.09,0-0.17,0-0.26-0.01c-0.36-0.02-0.72-0.05-1.09-0.1c-0.28-0.03-0.56-0.08-0.84-0.13c-0.25-0.04-0.5-0.1-0.75-0.15
						c-0.28-0.04-0.56-0.12-0.83-0.21c-0.53-0.14-1.06-0.31-1.6-0.52c0,0-0.93-0.37-0.78-1.93c-0.32-0.73-0.43-1.7-0.19-3.08
						c0.76-4.52-3.66-3.91-4.83-8.72c-0.23-0.91,0-1.64,0.28-2.26c-0.01-0.18-0.02-0.37-0.03-0.55c-0.14-4.28,1.2-8.15,2.52-7.83
						c0,0-0.98,1.88-0.15,3.12c0.83,1.25,1.33-0.43,3.95-1.21c2.6-0.77,5.76-0.19,6.69,1.02c0.94,1.21,1.62,4.02,2.42,7.09
						c0.8,3.06,4.45,7.05,4.9,9.12c0.12,0.58,0.15,1.15,0.12,1.62c-0.01,0.11-0.03,0.22-0.04,0.31c0.01,0.11,0.02,0.21,0.03,0.29
						C345.29,428.93,345.39,429.12,345.29,429.72z"/>
				</g>
				<path class="st26" d="M352.4,274.57c-0.3,10.49-4.21,46.91-5.42,56.33c-0.61,16.96-9.21,74.9-9.21,74.9
					c-7.69,1.62-10.73-0.69-10.73-0.69s0.38-7.4-0.45-18.06c-1.43-18.26-4.02-45.35-0.8-55.81c0.45-2.17-0.09-4.58-0.6-7.17
					c-3.05-15.59-4.62-40.58-4.62-40.58c-2.05,6.71-7.82,22.62-11.68,30.91c-2.59,5.57-1.28,8.87-1.28,8.87s4.04,12.46,4.77,17.42
					c1.53,10.3,1.25,31.28,1.71,45.44c0.21,6.35,1.55,14.09,1.55,14.09c-6.81,3.82-12.56,1.81-12.56,1.81s-19.43-65.23-19.43-83.89
					c0-1.78,0.79-11.97,0.79-12.01c2.76-23.48,10.03-52.82,11.28-56.92c2.35,0.72,12.38,2.24,21.99,2.57
					c10.53,0.36,26.08-0.83,34.04-2.57C354.98,255.96,352.57,268.83,352.4,274.57z"/>
				<path class="st6" d="M321.19,417.61c-0.75,1.2-8.94,1.92-10.95,3.08c-2,1.15-6.63,4.41-11.52,5.24
					c-4.89,0.83-12.45,0.5-14.11-0.89c-1.64-1.39-0.42-2.02-0.42-2.02s-0.11-0.49-0.1-1.06c0.36,0.15,0.75,0.41,1.3,0.65
					c1.82,0.79,3.72,0.78,5.69,0.79c2.88,0.02,5.78,0.04,8.56-0.69c2.5-0.66,4.78-1.9,7.13-2.95c4.49-2,9.28-3.3,14.17-3.85
					c0.12-0.01,0.24-0.03,0.36-0.03C321.49,416.29,321.61,416.93,321.19,417.61z"/>
				<path class="st6" d="M345.29,429.72c-0.1,0.56-2.12,1.81-5.12,2.43c-0.3,0.06-0.61,0.12-0.91,0.16
					c-0.3,0.05-0.61,0.09-0.92,0.12c-0.3,0.03-0.61,0.05-0.92,0.08c-0.32,0.02-0.65,0.02-0.97,0.02c-0.25,0-0.51-0.01-0.76-0.02
					c-0.09,0-0.17,0-0.26-0.01c-0.36-0.02-0.72-0.05-1.09-0.1c-0.28-0.03-0.56-0.08-0.84-0.13c-0.25-0.04-0.5-0.1-0.75-0.15
					c-0.28-0.04-0.56-0.12-0.83-0.21c-0.53-0.14-1.06-0.31-1.6-0.52c0,0-0.93-0.37-0.78-1.93c-0.32-0.73-0.43-1.7-0.19-3.08
					c0.76-4.52-3.66-3.91-4.83-8.72c-0.23-0.91,0-1.64,0.28-2.26c-0.01-0.18-0.02-0.37-0.03-0.55c0.88,1.91,0.8,3.36,2.97,4.85
					c1.59,1.1,3.46,2.25,3.83,4.15c0.37,1.88-0.72,4.37,0.85,5.45c2.02,1.38,5.06,0.94,7.31,0.55c1.97-0.36,3.74-1.15,5.48-2.06
					c-0.01,0.11-0.03,0.22-0.04,0.31c0.01,0.11,0.02,0.21,0.03,0.29C345.29,428.93,345.39,429.12,345.29,429.72z"/>
				<g>
					<g>
						<path class="st6" d="M334.25,418.16c0.83-0.52,1.6-1.04,2.58-1.26c1-0.22,1.87,0.07,2.85,0.09c0.38,0.01,0.45-0.47,0.18-0.67
							c-1.7-1.24-4.93-0.18-5.98,1.48C333.74,418.02,334.02,418.3,334.25,418.16L334.25,418.16z"/>
					</g>
				</g>
				<g>
					<g>
						<path class="st6" d="M336.14,420.96c1.3-0.98,2.75-1.23,4.3-0.8c0.55,0.15,0.72-0.62,0.23-0.83
							c-1.67-0.71-3.71-0.17-4.88,1.18C335.59,420.74,335.86,421.17,336.14,420.96L336.14,420.96z"/>
					</g>
				</g>
				<g>
					<g>
						<path class="st6" d="M293.88,414.22c1.08,0.1,1.84,0.15,2.71,0.9c0.51,0.44,0.91,1.23,1.62,1.27
							c0.14,0.01,0.22-0.12,0.24-0.24c0.1-0.88-1.28-1.89-1.96-2.29c-0.79-0.46-1.96-0.81-2.75-0.22
							C293.48,413.83,293.56,414.19,293.88,414.22L293.88,414.22z"/>
					</g>
				</g>
				<g>
					<g>
						<path class="st6" d="M296.17,410.89c0.96,0.32,1.9,0.6,2.7,1.24c0.71,0.57,1.05,1.48,1.74,2.01c0.23,0.18,0.57,0.08,0.58-0.24
							c0.03-0.99-1.02-1.96-1.75-2.52c-0.9-0.68-2.04-1.2-3.2-1.11C295.9,410.31,295.82,410.78,296.17,410.89L296.17,410.89z"/>
					</g>
				</g>
			</g>
			<path class="st6" d="M276.05,215.82l8.34,15.45c1.02,0.19,1.97,0.2,2.86,0.07c5.63-0.81,8.86-7.07,9.09-7.58
				c0.99-2.2,2.5-5.43,4.23-9.07c5.71-12.03,13.85-28.67,13.85-28.67l-21.64-22.51c0,0-5.12,4.68-7.48,16.01
				c-0.41,2.03-2.24,10.08-4.26,18.75c-0.53,2.23-1.15,4.58-1.77,6.81c-0.18,0.6-0.34,1.2-0.51,1.78
				C277.35,211.83,276.05,215.82,276.05,215.82z"/>
			<path class="st6" d="M324.64,260.4c0,0,2.65,52.46,2.65,52.49c0.04,0.79,10.55,2.72,11.34,2.89c4.05,0.88,8.12,1.62,12.22,2.2
				c4.23,0.6,8.6,2.04,12.87,1.26c-1.13,0.21-2.14-24.5-2.18-26.67c-0.16-9.24-0.32-18.63-2.72-27.62
				c-1.87-7.02-5.28-9.19-12.17-10.98c-3.63-0.95-7.42-1.57-11.17-1.84l-10.85,7.39L324.64,260.4z"/>
			<path class="st6" d="M282.76,231.51c-8.02,0.44-16.85-2.03-24.19-3.55c-7.35-1.52-11.46-3.13-11.46-3.13s1.3-1.13,1.77-4.7
				c0.46-3.47-0.53-5.46-0.53-5.46s21.26-0.92,29.76-2.29l12.9,17.56C288.8,230.84,285.96,231.33,282.76,231.51z"/>
			<path class="st6" d="M291.25,205.75c0.18,2.34,0.37,4.7,0.57,7.05c0.25,3.02,0.5,6.03,0.75,9.01
				c1.13,13.37-0.81,19.81-1.35,35.77c2.1,0.12,4.21,0.24,6.31,0.36c11.04,0.64,22.09,1.28,33.13,1.91
				c2.13,0.12,27.81,0.11,27.99,2.81c-0.43-6.41-0.86-12.81-1.28-19.22c-0.68-10.2-1.36-20.44-0.8-30.65
				c0.43-7.87,1.57-15.69,1.67-23.58c0.08-6.3,0.01-15.27-3.61-20.69c-4.01-6-16.97-11.13-19.14-11.56
				c-17.82-3.57-34.24-0.17-42.74,6.53C288.92,167.92,289.72,186.11,291.25,205.75z"/>
			<g>
				<path class="st27" d="M335.34,159.52c0.35,1.65,0.64,3.31,0.91,4.98c0.28,1.66,0.52,3.33,0.74,5.01l0.02,0.17l-0.13,0.14
					c-1.48,1.59-3.01,3.14-4.54,4.67l-0.06-0.52l2.68,1.89c0.89,0.64,1.77,1.29,2.64,1.96c-0.97-0.51-1.92-1.06-2.87-1.6l-2.82-1.68
					l-0.35-0.21l0.29-0.31c1.47-1.6,2.95-3.2,4.46-4.75l-0.11,0.31c-0.2-1.67-0.38-3.34-0.51-5.01
					C335.53,162.89,335.4,161.21,335.34,159.52z"/>
			</g>
			<g>
				<g>
					<path class="st27" d="M332.65,282.68c2.38,0.01,4.77,0.03,7.15,0.09c2.33,0.06,4.84,0.42,7.15,0.12
						c0.13-0.02,0.19-0.22,0.03-0.26c-2.18-0.47-4.61-0.3-6.84-0.34c-2.5-0.05-4.99-0.06-7.49-0.05
						C332.38,282.25,332.38,282.67,332.65,282.68L332.65,282.68z"/>
				</g>
			</g>
			<g>
				<g>
					<path class="st27" d="M332.33,283.05c0.2,1.75,0.29,4.49,1.89,5.64c0.75,0.54,1.71,0.62,2.6,0.68c1.57,0.1,3.17,0.08,4.74,0.08
						c1.73,0,3.78-0.12,4.96-1.57c1.23-1.51,0.88-3.73,0.41-5.46c-0.07-0.24-0.4-0.13-0.36,0.1c0.3,1.93,0.82,4.27-1.09,5.61
						c-1.27,0.89-3.02,0.79-4.5,0.77c-1.55-0.02-3.15,0.09-4.69-0.08c-3.02-0.33-3.23-3.37-3.53-5.78
						C332.73,282.78,332.3,282.77,332.33,283.05L332.33,283.05z"/>
				</g>
			</g>
			<g>
				<g>
					<path class="st27" d="M331.91,283.46c0.16,4.83,0.36,9.7,0.89,14.51c0.12,1.1,0.28,2.17,1.17,2.92
						c1.3,1.08,3.39,1.15,4.98,1.04c2.64-0.18,6.83-0.59,8.37-3.14c0.77-1.28,0.78-2.86,0.72-4.3c-0.1-2.28-0.23-4.59-0.47-6.86
						c-0.03-0.26-0.42-0.27-0.42,0c0.03,3.01,0.86,6.51,0.17,9.47c-0.81,3.48-5.4,3.98-8.37,4.17c-2.04,0.13-4.79-0.01-5.4-2.42
						c-0.4-1.58-0.35-3.4-0.5-5.02c-0.31-3.45-0.56-6.91-0.77-10.37C332.27,283.22,331.9,283.22,331.91,283.46L331.91,283.46z"/>
				</g>
			</g>
			<g>
				<g>
					<path class="st27" d="M293,228.4c0.76-7.84-0.22-15.54-1.24-23.31c-0.49-3.72-0.96-7.44-1.21-11.18
						c-0.27-4.04,0.06-8.05-0.06-12.09c0-0.13-0.19-0.16-0.23-0.03c-1.84,7.2-0.25,15.58,0.69,22.83c1.02,7.87,2.18,15.82,1.9,23.78
						C292.84,228.5,292.99,228.49,293,228.4L293,228.4z"/>
				</g>
			</g>
			<g>
				<g>
					<path class="st27" d="M289.34,194.61c-0.78-1.98-2.01-4.3-3.96-5.35c-0.14-0.07-0.33,0.08-0.23,0.23
						c0.6,0.86,1.4,1.55,2.04,2.37c0.69,0.89,1.38,1.85,1.94,2.83C289.19,194.81,289.39,194.74,289.34,194.61L289.34,194.61z"/>
				</g>
			</g>
			<g>
				<path class="st27" d="M308.26,157.96c-1.51,1.71-2.92,3.5-4.2,5.37c-1.28,1.87-2.44,3.83-3.23,5.93l-0.06-0.33
					c1.14,1.24,2.23,2.51,3.35,3.77l0.28,0.31l-0.35,0.23l-5.76,3.82l0.17-0.42c0.46,2.17,0.87,4.34,1.28,6.52
					c0.4,2.18,0.81,4.35,1.14,6.55c0.34,2.19,0.65,4.38,0.91,6.58c0.23,2.2,0.46,4.41,0.49,6.63c-0.22-2.2-0.53-4.39-0.89-6.57
					c-0.34-2.18-0.72-4.36-1.14-6.53l-1.24-6.51l-1.34-6.49l-0.06-0.27l0.23-0.15l5.81-3.76l-0.07,0.54
					c-1.1-1.28-2.21-2.53-3.29-3.82l-0.13-0.15l0.07-0.17c0.89-2.15,2.13-4.1,3.49-5.94C305.13,161.28,306.62,159.54,308.26,157.96z
					"/>
			</g>
			<path class="st26" d="M324.64,260.4c0,0-6.64,0.67-13.51,0c-3.23-0.32-6.86-1.17-6.86-1.17s1.95-48.64,2.32-69.93
				c0.25-13.87,1.99-23.48,4.11-28.75c0.75-1.91,1.57-3.24,2.38-4.03c0.19-0.2,0.39-0.36,0.59-0.47l0.05-0.04
				c5.53-3.31,18.55,0.39,18.55,0.39s-1.59,3.21-2.57,6.45c-0.15,0.51-0.28,1.02-0.4,1.52c-1.51,6.64-1.62,9.29-3.39,28.2
				C324.14,211.49,324.64,260.4,324.64,260.4z"/>
			<path class="st11" d="M332.26,156.4c0,0-1.59,3.21-2.57,6.44c-6.02,2.1-9.51,2.65-14.03,1.83c-2.63-0.48-4.4-2.25-4.97-4.12
				c0.75-1.91,1.57-3.25,2.39-4.03c0.23-0.16,0.42-0.32,0.59-0.47l0.04-0.05c0.19-0.17,0.32-0.31,0.34-0.48
				c0.17-0.93,0.22-1.35,0.18-1.82c-0.02-0.38-0.08-0.79-0.17-1.53c-0.16-1.85-0.38-3.89-0.38-3.89l3.31-2.16l12.87-12.76l0.22,4.24
				c0,0-0.19,12.32,1.34,17.62C331.56,155.69,331.84,156.14,332.26,156.4z"/>
			<path class="st28" d="M323.39,143.87c0,0-0.93,6.03-9.16,9.84c-0.02-0.38-0.08-0.79-0.17-1.53c-0.16-1.85-0.38-3.89-0.38-3.89
				l3.31-2.16L323.39,143.87z"/>
			<path class="st29" d="M292.67,196.55c0,0-3.04,0.31-1.92,7.92c0.93,6.32,1.56,7.57,3.85,8.42c2.29,0.85,5.61-2.37,5.58-2.53
				c-0.03-0.16-0.35-6.61-0.58-7.36c-0.23-0.75-1.31-2.39-1.75-2.8c-0.44-0.41-3.29-2.68-3.29-2.68l-0.81-0.56
				C293.75,196.97,293.06,196.7,292.67,196.55z"/>
			<path class="st11" d="M316.98,203.84l-2.81,17.14c-9.97-5.02-20.44-11.41-27.48-15.65c-4.93-2.96-9.39-5.55-9.39-5.55
				s-0.6-0.73,0.7-4.09c0.78-2.06,2.27-1.94,2.27-1.94s17.49,4.52,32.32,8.76C314.26,202.98,315.69,203.43,316.98,203.84z"/>
			<path class="st6" d="M356.01,175.2c0.57,3.95-0.02,8.56-0.13,11.77c-0.07,2.14-0.24,4.3-0.82,6.37c-1,3.54-3.16,6.62-5.28,9.62
				c-2.67,3.78-5.53,7.45-8.26,11.14c-2.12,2.87-3.76,7.71-6.97,9.63c-3.53,2.51-7.09,4.34-16.07,0.86
				c-9.1-3.51-23.88-11.69-23.88-11.69c2.13-0.94,2.45-7.43,1.43-11.42c-1.15-4.49-3.28-4.85-3.36-4.92c0,0,28.02,7.1,28.05,7.1
				c0,0,7.13-12.31,7.79-13.37c3.15-5.07,6.31-10.15,9.46-15.22c3.3-5.31,8.88-11.47,15.17-6.04
				C354.83,170.48,355.65,172.71,356.01,175.2z"/>
			<g>
				<path class="st10" d="M308.67,127.02c0.38,2.25-0.43,4.55-1.66,6.47c-0.87,1.36-1.87-0.2-3.46-0.49
					c-2.45-0.45-2.72-3.7-2.84-10.74c-1.14-2.99-0.82-7.37-0.53-7.81c1.02-1.58,3.43-2.05,5.29-1.84"/>
			</g>
			<g>
				<path class="st28" d="M313.79,150.61c1.17,0.02,3.73-0.75,4.31-0.96c2.55-0.93,6.74-3.74,7.35-6c-2.58,1.41-7.33,3.9-11.74,4.3
					C313.72,148.73,313.76,149.88,313.79,150.61z"/>
			</g>
			<g>
				<path class="st11" d="M327.87,143.53c-1.04,0.96-2.7,1.92-4.64,2.8c-4.29,1.92-9.94,3.39-13.28,3.26
					c-3.21-0.13-5.46-5.79-7.33-12.05c-0.27-0.92-0.5-1.88-0.67-2.85c-1.59-8.97,1.05-19.6,4.94-23.55
					c3.87-3.95,8.74-6.69,14.39-7.32c8.58-0.95,10.99,8.03,11.46,14.83C333.26,126.14,333.87,138,327.87,143.53z"/>
			</g>
			<g>
				<path class="st13" d="M307.96,129.72c0.15,1.62-0.13,3.21-0.6,4.74c-0.07,0.19-0.12,0.37-0.22,0.6l-0.23,0.5
					c-0.03,0.07-0.05,0.13-0.06,0.16c-0.01,0.01-0.01,0-0.01,0.02c0,0.03,0.13,0.14,0.31,0.27c0.67,0.54,1.17,1.2,1.48,1.96
					c-0.63-0.5-1.27-0.96-1.9-1.3c-0.15-0.08-0.39-0.15-0.62-0.45c-0.11-0.15-0.17-0.35-0.17-0.54c0-0.17,0.04-0.3,0.07-0.42
					c0.07-0.23,0.16-0.42,0.23-0.59c0.05-0.13,0.11-0.33,0.16-0.51C306.9,132.69,307.33,131.21,307.96,129.72z"/>
			</g>
			<g>
				<path class="st10" d="M328.78,117.24c-1.97,1.99-16.3,2.35-21.17,1.03c-4.29-1.16-7.46-3.09-9.58-7.1
					c-0.71-1.35-1.38-2.79-1.36-4.32s0.96-3.14,2.46-3.45c-0.58,0.72,0.12,1.87,1.02,2.08c0.9,0.21,1.81-0.2,2.65-0.6
					c4.3-2.02,8.79-3.92,13.54-4.23c5.54-0.37,16.98,3.48,15.09,11"/>
			</g>
			<g>
				<path class="st10" d="M325.02,114.45c-1.31,1.25-1.79,3.13-2.05,4.92c-0.39,2.7-0.41,5.54,0.65,8.05
					c0.3,0.72,0.28,4.13,0.85,3.99c0.18-0.04,0.37-2.68,0.95-4.06c0.9-2.14,4.27-2.7,5.63-1.19c2.18,2.41,0.57,4.98-0.35,6.58
					c-0.56,0.97-1.39,2.04-1.61,3.1c-0.28,1.35-0.74,6.32,0.06,7.56c0.66,1.04,1.85-3.6,2.6-4.47c5.57-6.48,11.83-23.65,3.62-28.18
					c-1.25-0.69-5.22-1.32-6.5-0.69"/>
			</g>
			<path class="st30" d="M322.51,133.44c0,0,1.73-0.66,2.8-4.22"/>
			<path class="st30" d="M329.3,133.97c0,0-0.48,7.96-3.82,10.19"/>
			<path class="st6" d="M326.01,144.13c0,0-0.94,1.03-2.78,2.19c-2.63,1.68-7.09,3.64-13.28,3.26c-3.21-0.13-5.46-5.79-7.33-12.05
				c-0.27-0.92,2.08-3.81,5.88-3.99c4.02-0.17,7.75,3.75,14.29-0.56C322.79,132.99,323.59,140.77,326.01,144.13z"/>
			<g>
				<g>
					<path class="st23" d="M316.6,168.49c0.43,11.25-4.1,23.47-16.14,26.39c-6.74,1.63-12.12-0.54-18.29-3.03
						c-3.9-1.57-8.24-2.32-12.3-3.44c-8.02-2.22-15.12,0.96-20.3,7.31c-2.73,3.35-4.23,7.41-6.55,11.01
						c-3.5,5.42-8.09,7.98-14.44,8.55c-0.62,0.06-0.62,0.91,0,0.96c10.25,0.81,14.93-6.88,19.27-14.87
						c2.81-5.17,7.32-10.14,13.16-11.87c3.59-1.06,7.03,0.01,10.48,0.99c2.77,0.79,5.63,1.26,8.37,2.11
						c5.24,1.63,9.52,4.33,15.2,4.28c4.27-0.03,8.53-1.22,12.12-3.56c8.26-5.4,10.71-15.51,10.16-24.84
						C317.29,168.02,316.58,168.02,316.6,168.49L316.6,168.49z"/>
				</g>
			</g>
			<path class="st6" d="M291.66,249.2c0,0-5.69,45.27-9.24,67.84l15.66-3.21c0,0,5.09-33.1,6.23-55.49
				C304.86,247.43,291.66,249.2,291.66,249.2z"/>
			<path class="st11" d="M284.34,194.85c0,0-4.12-1.85-6.22-3.76c-2.1-1.91-4.26-4.01-4.97-4.3c-0.71-0.29-3.56-0.98-4.03-0.96
				c-0.48,0.01-0.36,1.59,0.62,2.11c1.54,0.82,1.94,1.1,2.36,1.48c0.59,0.54-0.58,0.39-2.58-0.33c-1.36-0.49-5.27-3.44-6.94-3.53
				c-1.67-0.1-0.24,1.86,0.86,2.81s4.21,3.14,4.21,3.14s0.38,1.95,0.68,2.41c0.3,0.46-0.08,1.35,0.02,2.14
				c0.1,0.79,0.38,1.37,0.44,1.75c0.06,0.38,0.13,1.78,0.76,2.19c0.64,0.41,8.77,0.31,9.65,0.83
				C280.09,201.35,284.34,194.85,284.34,194.85z"/>
			<g>
				<g>
					<path class="st23" d="M328.17,129.93c-1.05-0.3-1.38,0.94-1.36,1.74c0.02,0.85,0.84,1.31,1.53,0.72
						c0.61-0.53,0.67-1.91,0.16-2.53c-0.18-0.22-0.45-0.34-0.73-0.26c-0.44,0.12-0.58,0.63-0.66,1.02c-0.17,0.79-0.07,1.96,1,1.98
						c1.11,0.02,0.87-1.37,0.65-2.04c-0.12-0.36-0.27-0.89-0.63-1.09c-0.37-0.2-0.75,0.03-0.97,0.33c-0.45,0.65-0.75,2.17,0,2.72
						c0.68,0.5,1.65-0.07,1.87-0.79c0.21-0.71-0.19-2.39-1.06-2.53c-0.96-0.15-1.2,1.48-1.21,2.12c-0.01,0.87,0.56,1.75,1.52,1.72
						c1.08-0.03,1.13-1.2,1.02-2.02c-0.12-0.87-1.01-2.02-1.96-1.28c-0.64,0.5-0.6,1.74-0.24,2.39c0.49,0.89,1.47,0.5,1.86-0.25
						c0.38-0.73,0.63-2.07-0.23-2.58c-1.03-0.61-1.95,0.61-1.9,1.55c0.04,0.72,0.76,2.8,1.74,1.62c0.74-0.89,0.4-2.32-0.32-3.1
						c-0.14-0.15-0.43-0.16-0.57,0c-0.51,0.6-0.77,1.39-0.57,2.18c0.14,0.56,0.66,1.2,1.31,1.05c0.62-0.15,0.86-0.98,0.85-1.53
						c-0.01-0.62-0.3-1.18-0.93-1.35c-0.22-0.06-0.42,0.07-0.5,0.28c-0.21,0.58-0.06,1.18,0.39,1.6c0.19,0.18,0.49,0.14,0.64-0.08
						c0.23-0.36,0.44-0.8,0.25-1.23c-0.16-0.34-0.53-0.57-0.91-0.47c-0.89,0.24-0.69,1.59-0.35,2.18c0.17,0.29,0.52,0.23,0.7,0
						c0.39-0.52,0.54-1.19,0.36-1.82c-0.13-0.46-0.57-0.99-1.11-0.79c-0.52,0.19-0.64,0.89-0.59,1.37c0.06,0.57,0.37,1.02,0.83,1.35
						c0.16,0.12,0.48,0.04,0.56-0.15c0.34-0.81,0.9-3.14-0.66-3.07c-1.27,0.05-1.47,2.03-0.58,2.69c1,0.74,2.03-1.06,1.29-1.8
						c-0.31-0.31-0.98-0.35-1.16,0.11c-0.19,0.47,0.24,0.9,0.69,0.9c0.37,0,0.46-0.57,0.09-0.66c0-0.01,0-0.02,0-0.03
						c-0.09,0.09-0.19,0.19-0.28,0.28c0.1-0.08,0.12-0.03,0.07,0.14c0.04,0.29-0.07,0.33-0.34,0.14c-0.16-0.16-0.14-0.98,0.2-0.94
						c0.6,0.08,0.1,1.55-0.02,1.83c0.19-0.05,0.37-0.1,0.56-0.15c-0.21-0.15-0.35-0.36-0.41-0.61c-0.01-0.06-0.05-0.55,0.01-0.53
						c0.12,0.02,0.12,0.48,0.12,0.55c-0.02,0.3-0.15,0.54-0.32,0.77c0.23,0,0.47,0,0.7,0c-0.13-0.22-0.12-0.36-0.18-0.6
						c0.01-0.08,0.02-0.15,0.03-0.23c-0.08,0.11-0.16,0.23-0.23,0.35c0.21-0.03,0.42-0.05,0.64-0.08c-0.25-0.24-0.3-0.49-0.19-0.81
						c-0.17,0.09-0.33,0.19-0.5,0.28c0.42,0.11,0.5,1.11,0.08,1.2c-0.33,0.07-0.37-0.53-0.36-0.77c0.01-0.37,0.16-0.71,0.4-0.98
						c-0.19,0-0.38,0-0.57,0c0.35,0.39,0.53,0.88,0.47,1.4c-0.01,0.09-0.07,0.59-0.2,0.56c-0.1-0.02-0.27-0.75-0.29-0.86
						c-0.05-0.26-0.08-0.56,0.07-0.8c0.17-0.27,0.58-0.47,0.75-0.08c0.14,0.31-0.01,0.83-0.12,1.12c-0.07,0.19-0.17,0.49-0.41,0.49
						c-0.24-0.01-0.24-0.26-0.27-0.47c-0.03-0.19-0.07-0.49,0-0.67c0.13-0.33,0.46-0.4,0.69-0.07c0.18,0.26,0.41,1.36,0.1,1.64
						c-0.5,0.44-0.95-0.46-0.97-0.8c-0.01-0.23,0.08-1.46,0.45-1.35c0.1,0.03,0.3,0.62,0.31,0.67c0.11,0.32,0.19,0.73-0.05,1.01
						c-0.1,0.12-0.32,0.27-0.49,0.25c-0.39-0.04-0.34-0.5-0.31-0.77c0.02-0.2,0.05-0.5,0.14-0.69c0.02-0.21,0.14-0.33,0.38-0.35
						c0.09,0.17,0.16,0.34,0.22,0.52c0.08,0.23,0.19,0.53,0.17,0.77c-0.03,0.51-0.49,0.68-0.69,0.11c-0.1-0.27-0.04-0.76,0.08-1.02
						c0.1-0.22,0.28-0.56,0.44-0.17c0.16,0.4,0.15,1.22-0.17,1.53c-0.21,0.22-0.42,0.19-0.62-0.08c-0.02-0.16-0.02-0.31-0.01-0.47
						c0.02-0.34,0.09-1.09,0.66-0.98C328.35,130.49,328.48,130.02,328.17,129.93L328.17,129.93z"/>
				</g>
			</g>
			<g>
				<g>
					<path class="st23" d="M328.39,131.46c3.04,0.32,4.95,0.46,5.97,3.88c0.47,1.59,0.38,3.48,0.52,5.13
						c0.3,3.41,0.69,6.88,0.5,10.31c-0.41,7.28-3.37,14.29-10.96,16.39c-6.61,1.82-14.76,0.78-18.77-5.38
						c-4.11-6.3-2.58-13.4-2.71-20.42c-0.01-0.34-0.52-0.43-0.61-0.08c-2.05,7.84-1.99,18.43,4.53,24.29
						c5.42,4.87,14.85,5.01,21.11,1.75c7.69-4,9.12-13.48,8.8-21.28c-0.25-6.06,0.9-17.69-8.48-15.28
						C327.89,130.87,328.02,131.42,328.39,131.46L328.39,131.46z"/>
				</g>
			</g>
			<g>
				<g>
					<path class="st23" d="M319,169.49c0.12,0,0.12-0.19,0-0.19C318.88,169.31,318.88,169.49,319,169.49L319,169.49z"/>
				</g>
			</g>
			<g>
				<g>
					<path class="st27" d="M320.72,203.8c0.76,1.28,1.69,2.44,2.39,3.75c0.68,1.29,0.93,2.57,1.27,3.97
						c0.07,0.27,0.43,0.18,0.45-0.06c0.31-2.96-1.79-5.92-3.7-7.98C320.93,203.26,320.56,203.54,320.72,203.8L320.72,203.8z"/>
				</g>
			</g>
			<g>
				<g>
					<path class="st27" d="M322.15,202.34c1.05,0.74,5.47,3.09,4.19,4.79c0.14-0.02,0.28-0.04,0.43-0.05
						c-0.34-0.28-0.6-0.62-0.89-0.95c-0.11-0.12-0.26,0.01-0.24,0.14c0.09,0.53,0.35,0.83,0.75,1.19c0.1,0.09,0.28,0.12,0.38,0
						c1.81-2.17-2.85-4.92-4.35-5.58C322.11,201.75,321.87,202.14,322.15,202.34L322.15,202.34z"/>
				</g>
			</g>
			<g>
				<g>
					<path class="st27" d="M327.76,228.13c0.2,6.88,0.87,13.74,1.13,20.62c0.27,6.9,0.26,13.8,0.19,20.7
						c-0.13,13.8-0.41,27.62,1.17,41.35c0.02,0.18,0.31,0.19,0.29,0c-1.57-13.73-1.3-27.56-1.18-41.35
						c0.13-13.74,0.01-27.63-1.32-41.32C328.01,227.96,327.75,227.96,327.76,228.13L327.76,228.13z"/>
				</g>
			</g>
			<g>
				<g>
					<path class="st27" d="M302.67,219.3c-0.02,15.16,0.88,30.29-1.1,45.36c-2.02,15.36-4.04,30.72-6.13,46.07
						c-0.03,0.23,0.29,0.28,0.32,0.04c1.99-15.22,4.11-30.42,6.11-45.64c1.99-15.2,1.34-30.54,0.95-45.84
						C302.8,219.21,302.67,219.21,302.67,219.3L302.67,219.3z"/>
				</g>
			</g>
			<g>
				<g>
					<path class="st27" d="M276.51,212.8c2.43,0.11,4.79,0.58,7.12,1.26c0.12,0.03,0.16-0.14,0.05-0.18
						c-2.31-0.92-4.7-1.31-7.17-1.32C276.35,212.56,276.35,212.8,276.51,212.8L276.51,212.8z"/>
				</g>
			</g>
			<g>
				<g>
					<path class="st27" d="M324.33,227.05c6.13,2.15,12.28-3.26,15.4-7.96c2.29-3.45,4.26-7.1,6.6-10.53
						c2.74-4.01,5.78-7.78,8.79-11.59c0.09-0.11-0.06-0.27-0.16-0.16c-5.04,5.27-9.27,11.38-13.03,17.62
						c-1.87,3.12-3.65,6.44-6.44,8.85c-2.85,2.47-7.24,4.53-11.01,3.21C324.13,226.38,323.98,226.93,324.33,227.05L324.33,227.05z"
						/>
				</g>
			</g>
			<g>
				<g>
					<path class="st27" d="M342.69,170.21c2.84-2.94,6.21-3.51,10.1-3.25c0.28,0.02,0.32-0.4,0.06-0.48
						c-3.72-1.21-7.99,0.65-10.51,3.39C342.14,170.1,342.47,170.43,342.69,170.21L342.69,170.21z"/>
				</g>
			</g>
			<g>
				<g>
					<path class="st27" d="M340.22,171.44c-0.97,0.45-1.5,1.31-1.49,2.37c0,0.26,0.36,0.3,0.44,0.06c0.24-0.75,0.77-1.5,1.39-1.99
						C340.82,171.66,340.48,171.31,340.22,171.44L340.22,171.44z"/>
				</g>
			</g>
			<g>
				<g>
					<path class="st27" d="M325.3,195.01c2.09-2.17,3.45-4.7,4.8-7.37c1.58-3.12,3.27-5.67,5.55-8.32c0.18-0.2-0.05-0.56-0.31-0.4
						c-5.27,3.42-6.35,11.19-10.34,15.8C324.83,194.92,325.11,195.21,325.3,195.01L325.3,195.01z"/>
				</g>
			</g>
			<g>
				<path class="st11" d="M248.61,216.6c-0.92-0.16-1.95-0.86-2.72-1.27c-0.96-0.51-1.91-1.06-2.87-1.56
					c-3.14-1.63-7.07-1.51-10.09,0.3c-0.25,0.15-0.51,0.34-0.55,0.63c-0.07,0.55,0.66,0.78,1.2,0.8c1.3,0.05,2.57,0.26,3.87,0.34
					c0.2,1.57,1.18,2.96,2.43,3.89c1.25,0.94,2.74,1.46,4.24,1.83c1.39,0.34,2.81,0.56,4.23,0.65c0.57-1.36,0.68-2.81,0.73-4.29
					c0-0.09-0.11-1.3-0.21-1.3C248.75,216.64,248.73,216.62,248.61,216.6z"/>
			</g>
			<g class="st24">
				<g>
					<path class="st25" d="M234.93,215.88c1.41,0.17,2.88,0.21,3.99,1.22c0.77,0.7,1.32,1.7,2.06,2.44c0.89,0.88,1.9,1.61,3.17,1.71
						c0.19,0.01,0.2-0.25,0.04-0.31c-2.44-0.93-3.36-2.68-5.15-4.38c-1.16-1.1-2.6-0.88-4.12-0.86
						C234.81,215.71,234.82,215.87,234.93,215.88L234.93,215.88z"/>
				</g>
			</g>
			<g class="st24">
				<g>
					<path class="st25" d="M233.55,213.78c1.83-0.98,4.51-1.26,6.55-0.89c0.13,0.02,0.18-0.15,0.05-0.2
						c-0.86-0.33-2.07-0.14-2.96-0.06c-1.29,0.12-2.58,0.39-3.7,1.06C233.45,213.73,233.5,213.81,233.55,213.78L233.55,213.78z"/>
				</g>
			</g>
			<g>
				<g>
					<path class="st27" d="M278.52,211.6c0.64-0.17,1.29-0.32,1.96-0.3c0.62,0.02,1.18,0.25,1.79,0.32
						c0.26,0.03,0.42-0.37,0.22-0.53c-1.1-0.91-3.05-0.73-4.18,0.01C278.06,211.27,278.22,211.68,278.52,211.6L278.52,211.6z"/>
				</g>
			</g>
			<g>
				<g>
					<path class="st10" d="M313.97,128.23c-0.81,0.24-0.83,1.31-0.76,2.02c0.07,0.75,0.33,1.4,1.16,1.48
						c0.22,0.02,0.5-0.14,0.6-0.34c0.44-0.92,0.46-1.87-0.05-2.79c-0.12-0.23-0.46-0.38-0.71-0.29c-0.41,0.15-0.59,0.37-0.64,0.8
						c-0.06,0.53,0.7,0.79,1.03,0.43c0.02-0.04,0.05-0.07,0.1-0.08c-0.29-0.08-0.57-0.15-0.86-0.23c0.14,0.22,0.25,0.44,0.27,0.7
						c0.01,0.15,0.03,0.52-0.07,0.63c0.2-0.05,0.4-0.11,0.6-0.16c-0.16-0.07-0.11-0.03,0.14,0.13c-0.03-0.09-0.04-0.19-0.04-0.28
						c-0.01-0.21,0-0.42,0.02-0.63c0.05-0.48,0.16-0.84-0.2-1.23C314.41,128.23,314.16,128.17,313.97,128.23L313.97,128.23z"/>
				</g>
			</g>
			<g>
				<g>
					<path class="st10" d="M304.61,129.26c-1.13,0.19-1.05,2.91,0.16,2.87c0.64-0.02,0.84-0.82,0.91-1.33
						c0.08-0.57-0.1-1.38-0.64-1.7c-1.44-0.88-1.92,2.22-0.85,2.87c0.7,0.43,1.3-0.28,1.41-0.92c0.13-0.69-0.03-1.51-0.62-1.94
						c-0.45-0.32-1.06,0.21-0.91,0.7c0.05,0.19,0.16,0.34,0.22,0.52c0.05,0.15,0,0.31,0.03,0.44c-0.09,0.28,0.14,0.33,0.7,0.16
						c-0.03-0.11-0.05-0.22-0.04-0.34c0-0.11,0-0.23,0.02-0.34c0.08-0.21,0.05-0.23-0.07-0.04c-0.17,0.02-0.34,0.04-0.51,0.07
						c-0.15-0.04-0.05-0.06,0.01,0.09c0.04,0.1,0.09,0.19,0.11,0.31c0.04,0.16,0.03,0.46-0.04,0.5c0.13-0.02,0.27-0.03,0.4-0.05
						c0.18,0.05,0.03-0.17,0.02-0.28c-0.02-0.17-0.01-0.36,0-0.53c0.03-0.29,0.14-0.54,0.05-0.83
						C304.93,129.31,304.77,129.24,304.61,129.26L304.61,129.26z"/>
				</g>
			</g>
			<g>
				<g>
					<path class="st10" d="M313.26,125.65c1.91-1.65,4.52-0.54,6.5,0.12c0.31,0.1,0.56-0.33,0.32-0.55
						c-1.81-1.63-5.53-1.92-7.18,0.08C312.7,125.54,313.01,125.86,313.26,125.65L313.26,125.65z"/>
				</g>
			</g>
			<g>
				<g>
					<path class="st10" d="M306.1,125.2c-1.05-1.21-4.41-1.56-5.21,0.13c-0.05,0.11,0.01,0.27,0.15,0.26
						c0.8-0.07,1.47-0.54,2.29-0.58c0.92-0.05,1.69,0.3,2.54,0.58C306.11,125.66,306.24,125.36,306.1,125.2L306.1,125.2z"/>
				</g>
			</g>
		</g>
		<g>
			<g>
				<path class="st31" d="M313.42,255.37c0.2,4,0.78,8.05,1.32,12.01c0.38,2.83,1.72,4.55,3.78,6.47c0.35,0.32,0.87-0.19,0.52-0.52
					c-1.02-0.98-2.14-1.98-2.81-3.25c-0.9-1.69-0.86-3.79-1.08-5.64c-0.37-3.04-0.64-6.12-1.22-9.14
					C313.87,255.02,313.41,255.08,313.42,255.37L313.42,255.37z"/>
			</g>
		</g>
		<g>
			<g>
				<path class="st31" d="M304.41,253.52c1.38,0.62,2.75,0.92,4.24,1.19c1.73,0.31,3.4,0.89,5.14,1.13
					c3.51,0.48,7.11-0.16,10.61-0.42c0.58-0.04,0.59-0.94,0-0.91c-3.47,0.18-6.95,0.84-10.43,0.4c-3.07-0.39-6.37-1.1-9.37-1.85
					C304.34,253,304.14,253.4,304.41,253.52L304.41,253.52z"/>
			</g>
		</g>
		<g>
			<g>
				<path class="st31" d="M317.81,256.68c-0.32,5.13,0.57,10.54,1.1,15.64c0.28,2.62,0.57,5.24,0.89,7.86
					c0.23,1.93,0.11,4.38,1.02,6.12c0.05,0.1,0.22,0.08,0.25-0.03c0.5-2.09-0.32-4.76-0.57-6.89c-0.31-2.63-0.6-5.26-0.87-7.9
					c-0.51-4.92-0.59-9.97-1.33-14.86C318.25,256.32,317.82,256.41,317.81,256.68L317.81,256.68z"/>
			</g>
		</g>
	</g>
</g>
</svg>
